STARTFONT 2.3
FONT -FontForge-Butcherman-Book-R-Normal--20-200-72-72-P-108-ISO10646-1
SIZE 20 72 72  4
FONTBOUNDINGBOX 31 39 -2 -13
COMMENT "Generated by fontforge, http://fontforge.sourceforge.net"
COMMENT "Copyright (c) 2011, Typomondo, with Reserved Font Name  "Butcherman"."
STARTPROPERTIES 41
FOUNDRY "FontForge"
FAMILY_NAME "Butcherman"
WEIGHT_NAME "Book"
SLANT "R"
SETWIDTH_NAME "Normal"
ADD_STYLE_NAME ""
PIXEL_SIZE 20
POINT_SIZE 200
RESOLUTION_X 72
RESOLUTION_Y 72
SPACING "P"
AVERAGE_WIDTH 108
CHARSET_REGISTRY "ISO10646"
CHARSET_ENCODING "1"
FONTNAME_REGISTRY ""
CHARSET_COLLECTIONS "ISO8859-2 ISO8859-9 ISO8859-4 ISO10646-1"
BITS_PER_PIXEL 4
FONT_NAME "Butcherman-Regular"
FACE_NAME "Butcherman Regular"
COPYRIGHT "Copyright (c) 2011, Typomondo, with Reserved Font Name  "Butcherman"."
FONT_VERSION "001.004"
FONT_ASCENT 16
FONT_DESCENT 4
UNDERLINE_POSITION -2
UNDERLINE_THICKNESS 1
X_HEIGHT 14
CAP_HEIGHT 14
DEFAULT_CHAR 3
RAW_ASCENT 799
RAW_DESCENT 200
NORM_SPACE 3
RELATIVE_WEIGHT 40
RELATIVE_SETWIDTH 50
SUPERSCRIPT_X 0
SUPERSCRIPT_Y 6
SUPERSCRIPT_SIZE 11
SUBSCRIPT_X 0
SUBSCRIPT_Y 1
SUBSCRIPT_SIZE 11
AVG_LOWERCASE_WIDTH 116
AVG_UPPERCASE_WIDTH 110
ENDPROPERTIES
CHARS 331
STARTCHAR NULL.dup1
ENCODING 0
SWIDTH 161 0
DWIDTH 3 0
BBX 1 1 0 0
BITMAP
00
ENDCHAR
STARTCHAR CR
ENCODING 13
SWIDTH 161 0
DWIDTH 3 0
BBX 1 1 0 0
BITMAP
00
ENDCHAR
STARTCHAR space
ENCODING 32
SWIDTH 161 0
DWIDTH 3 0
BBX 1 1 0 0
BITMAP
00
ENDCHAR
STARTCHAR exclam
ENCODING 33
SWIDTH 350 0
DWIDTH 7 0
BBX 7 25 0 0
BITMAP
03966200
7FFFFF30
4FFFFF20
1CFFFB00
0AFFFA00
0CFFF800
0EFFF600
09FFF400
05FFF100
01FFF300
00EFF100
00DFD000
00DFE000
00DFE000
00CFC000
00799000
00000000
00001000
3CDFFF10
0EFFFF00
0AFFFF10
09FFFF30
09FFFF10
0AFDBC00
01100000
ENDCHAR
STARTCHAR quotedbl
ENCODING 34
SWIDTH 541 0
DWIDTH 11 0
BBX 9 8 1 7
BITMAP
9AB819BB60
EFFC0EFFB0
BFFB0AFF90
8FF906FF60
6FF603FF50
3FF500FF20
0EF300DE00
0641006300
ENDCHAR
STARTCHAR numbersign
ENCODING 35
SWIDTH 583 0
DWIDTH 12 0
BBX 12 18 0 -2
BITMAP
000008200770
00005F100EA0
0000AD004F60
0000EA008F20
0277FA56BF62
04FFFFFFFFE1
05FFFFFFFFB0
04DFFFEFFFA0
003F722FC210
007F102F9000
00BD005F4000
45FB349F6400
CFFFFFFFF400
CFFFFFFFF100
17C423F54000
0D7006E00000
3F400AB00000
28100A700000
ENDCHAR
STARTCHAR dollar
ENCODING 36
SWIDTH 534 0
DWIDTH 11 0
BBX 10 26 0 -6
BITMAP
0000060000
00004F1000
00005F2000
00006F0000
00005F2000
00028FA500
008FFFFFB1
05FFFFFFFB
0CFFFFFFFD
2FFFFFFFFD
4FFFFFFFFC
3FFFEAFFFA
2FFFC0DEEA
0EFFFA7103
07FFFFFD10
005CFFFF90
001126FFE0
09FFC0EFF0
05FFFCFF80
00BFFFFF10
00278F6400
00004E0000
00006D0000
00007E0000
00006E0000
0000130000
ENDCHAR
STARTCHAR percent
ENCODING 37
SWIDTH 828 0
DWIDTH 17 0
BBX 16 18 0 -2
BITMAP
0000000001830000
0044100009F30000
0CFFD3000EE10000
5FFFFC003F800000
5FFFFD004F800000
4FB9FD007F400000
4F76FC00BD007C80
2F86F902F804FFF7
0EDBF307F307FFFA
06DFA00DD006FEFB
0004004FA005FDFC
000000AF500AE9FD
0000009E100BD5F9
000000A90008EFF3
000001F400003A40
000007E100000000
000009C000000000
0000046000000000
ENDCHAR
STARTCHAR ampersand
ENCODING 38
SWIDTH 522 0
DWIDTH 10 0
BBX 10 11 0 2
BITMAP
0003985000
0005FFD000
0005FFC000
1558FFC343
3FFFFFFFF9
3FFFFFFFF8
2FFFFFFFF8
0238FFD441
0005FFC000
0005FFA000
0002663000
ENDCHAR
STARTCHAR quotesingle
ENCODING 39
SWIDTH 300 0
DWIDTH 6 0
BBX 5 8 0 7
BITMAP
19AB70
0DFFD0
0AFFD0
08FFA0
05FF80
03FF70
00FF50
007410
ENDCHAR
STARTCHAR parenleft
ENCODING 40
SWIDTH 372 0
DWIDTH 7 0
BBX 8 21 0 -3
BITMAP
00000010
000018E1
0005EFF0
002EFFD0
00AFFFB0
04FFFF90
0AFFFF80
0DFFFE60
0FFFC100
2FFF7000
3FFF5000
3FFF4000
3FFF3000
2FFF5000
0EFF7000
0AFFD000
04FFF800
00CFFF30
003FFF60
0006EF60
00001400
ENDCHAR
STARTCHAR parenright
ENCODING 41
SWIDTH 338 0
DWIDTH 7 0
BBX 6 20 0 -3
BITMAP
385100
7FFD20
4FFFD2
3FFFF8
2FFFFB
1FFFFC
1FFFFC
04BFFB
003FFB
001FFA
000FF9
000FF8
001FF7
004FF5
006FF2
00AFE0
02CF80
5FFD10
8FE300
484000
ENDCHAR
STARTCHAR asterisk
ENCODING 42
SWIDTH 513 0
DWIDTH 10 0
BBX 10 12 0 4
BITMAP
000100A300
005E20DC00
009F95FA00
003FEDF500
110CFFE100
6FEEFFFFE9
5FFFFFFFF7
0339FFD321
000AFEF300
001EE7FA00
006F91EC00
0013301000
ENDCHAR
STARTCHAR plus
ENCODING 43
SWIDTH 458 0
DWIDTH 9 0
BBX 9 9 0 3
BITMAP
0006760000
000CFE0000
000BFD0000
1FFFFFEF30
1FFFFFFF30
1EFFFFDF20
000CFE0000
000CFE0000
0007870000
ENDCHAR
STARTCHAR comma
ENCODING 44
SWIDTH 361 0
DWIDTH 7 0
BBX 7 10 0 -3
BITMAP
0ADA9A10
0EFFFF20
0FFFFF30
0FFFFF30
1FFFFF20
1FFFFF20
0102EF10
0001FE00
0004FB00
0005D800
ENDCHAR
STARTCHAR hyphen
ENCODING 45
SWIDTH 478 0
DWIDTH 10 0
BBX 8 5 1 5
BITMAP
79988784
CFFFFFF3
DFFFFFF0
CEFEFFE0
01322130
ENDCHAR
STARTCHAR period
ENCODING 46
SWIDTH 374 0
DWIDTH 7 0
BBX 7 7 0 0
BITMAP
1ACEFE50
0BFFFF60
0AFFFF60
08FFFF70
07FFFF60
07FDBD40
01100000
ENDCHAR
STARTCHAR slash
ENCODING 47
SWIDTH 291 0
DWIDTH 6 0
BBX 7 18 -1 -2
BITMAP
00000660
00000E90
00005F60
00009E10
0000AE00
0000EA00
0004F600
000CF100
002FB000
005F7000
009F3000
00CD0000
00D90000
01F40000
06E00000
0CA00000
1F600000
17300000
ENDCHAR
STARTCHAR zero
ENCODING 48
SWIDTH 528 0
DWIDTH 11 0
BBX 10 17 0 -2
BITMAP
0017AAA300
01CFFFFE40
09FFFFFFD2
0EFFFFFFF7
1FFFFFFFF7
0EFFFFFFF9
0EFFDCFFF8
0DFF44FFF8
0DFF12FFF7
0CFF10FFF6
0BFF11FFF4
08FF33FFD0
06FF77FF80
04FFFFFF50
00ADFFFC00
00037FB200
0000031000
ENDCHAR
STARTCHAR one
ENCODING 49
SWIDTH 366 0
DWIDTH 7 0
BBX 7 16 0 -1
BITMAP
0003AA20
27CFFF20
DFFFFF20
7AEFFF50
00CFFF50
00BFFF40
009FFF20
008FFD00
007FFE00
005FFE00
004FFA00
003FFA00
002FFA00
000FF900
0009C900
00001300
ENDCHAR
STARTCHAR two
ENCODING 50
SWIDTH 575 0
DWIDTH 12 0
BBX 12 17 0 -2
BITMAP
0019CCA50000
02CFFFFF7000
0AFFFFFFF500
0EFFFFFFFB00
0EFFFFFFFD00
0EFFFFFFFD00
0DFFFDFFFB00
0CFF81EFF900
09CD57FFF600
00000BFFF200
00000DFFA000
00007FFF1000
0006FFFEA8A2
0AEFFFFFFFF0
0DFFFFFDEFC0
1FFEBD728C90
036211002910
ENDCHAR
STARTCHAR three
ENCODING 51
SWIDTH 517 0
DWIDTH 10 0
BBX 10 17 0 -2
BITMAP
0038AA7000
05FFFFFA00
3FFFFFFF80
3FFFFFFFF1
2FFFFFFFF4
1FFFFFFFF5
0EFFEDFFF5
0DFF57FFF4
07320AFFE0
0000CFFFB0
0000CFFFD0
000000BFF3
005BC58FF2
006FFBCFD0
000DFFFF50
0006FCAA00
0000100000
ENDCHAR
STARTCHAR four
ENCODING 52
SWIDTH 466 0
DWIDTH 9 0
BBX 9 20 0 -5
BITMAP
09CBBACD60
01EFFFE100
02FFFF5000
04FFFF1000
05FFFC0000
08FFF60000
08FFF40000
06FFF20000
06FFD67510
08FF9CFF10
0AFF6BFB00
0CFF49F900
0EFFEEFDA0
2FFFFFFFA0
4FFFFFFFA0
23126BFC80
000005F300
000004F200
000004F200
0000014100
ENDCHAR
STARTCHAR five
ENCODING 53
SWIDTH 583 0
DWIDTH 12 0
BBX 11 17 1 -2
BITMAP
BCDDDB988710
EFFFFFFFFF10
EFFFFFFFFE00
CFFFFFFFFB00
FFFFFFFFF900
DFFFFFFFF700
CFFFFFFFF500
EFF634578200
CFF723320000
AFFEFFF90000
3CCEFFFC0000
00000AFF1000
04BC67FE1000
05FFBCFB0000
00CFFFF40000
005FCAA00000
000100000000
ENDCHAR
STARTCHAR six
ENCODING 54
SWIDTH 582 0
DWIDTH 12 0
BBX 11 17 0 -2
BITMAP
002798861000
03DFFFFFE400
1FFFFFFFFE20
2FFFFFFFFFB0
3FFFFFFFFFD0
2FFFFFFFFFA0
0FFFFDFFFF80
0DFFC0BFFF20
0AFFA05FFE00
07FFA4437800
02FFFFFEC700
00EFF55EFF10
00DFF20DFF00
00BFF97EFE00
005FFFFFFE00
000AFFFEFA00
000045625000
ENDCHAR
STARTCHAR seven
ENCODING 55
SWIDTH 624 0
DWIDTH 12 0
BBX 13 17 0 -2
BITMAP
35789ACDDDDC40
8FFFFFFFFFFF10
5FFFFFFFFFFB00
2FFFFFFFFFF600
0FFFFFFFFFF300
0DFFFFFFFFD000
0BFFFFFFFF7000
0676542CFF6000
0000001FFE1000
0000007FF90000
000000DFF20000
000003FFA00000
000009FF200000
00000DFC000000
00004FF5000000
0000AFE0000000
0001BD90000000
ENDCHAR
STARTCHAR eight
ENCODING 56
SWIDTH 459 0
DWIDTH 9 0
BBX 9 17 0 -2
BITMAP
029CCB8200
1EFFFFFF20
3FFFFFFF60
3FFFFFFF50
1FFFFFFF40
0EFFFFFF10
0BFE7EFE00
09FF0BFB00
06FF4CF800
01DFFFE200
00CFFFD100
01FD4EF300
00FC0DF200
00EE5FF100
00BFFFD000
002B8B4000
0002100000
ENDCHAR
STARTCHAR nine
ENCODING 57
SWIDTH 584 0
DWIDTH 12 0
BBX 11 18 0 -3
BITMAP
000379C92000
004FFFFFD600
03EFFFFFFF50
0AFFFFFFFF60
1FFFFFFFFF90
2FFFFFFFFFB0
3FFFFAEFFFC0
1FFFF16FFFC0
0CFFFAAFFFB0
04FFFFFFFF80
005BECDFFF20
0013305FFC00
06FFF28FF700
03FFFCFFD100
00BFFFFF5000
001869782000
000005100000
000003000000
ENDCHAR
STARTCHAR colon
ENCODING 58
SWIDTH 386 0
DWIDTH 8 0
BBX 7 17 0 0
BITMAP
18ADED50
0BFFFF60
07FFFF60
09FFFF70
07FFFF80
06FEDE70
01300000
00000000
00000000
00011000
1BDFFF50
0CFFFF40
0BFFFF60
09FFFF70
06FFFF60
05FDBC40
00200000
ENDCHAR
STARTCHAR semicolon
ENCODING 59
SWIDTH 375 0
DWIDTH 8 0
BBX 7 22 0 -4
BITMAP
00011000
29BEFE30
0DFFFF50
0AFFFF40
09FFFF40
0AFFFF40
09FEDD30
02200000
00000000
00000000
00000000
0AC9AB30
0CFFFF40
0AFFFF40
0CFFFF40
0DFFFF40
0EFFFF30
0102EF30
0001FF10
0003FE00
0003EC00
00000100
ENDCHAR
STARTCHAR less
ENCODING 60
SWIDTH 459 0
DWIDTH 9 0
BBX 9 12 0 1
BITMAP
0003333320
000DFFFF40
002FFFF500
00AFFF9000
09FFFD1000
4FFFF30000
2FFFF40000
09FFFB0000
00BFFF4000
002DFFE400
0003EFFE50
0000257930
ENDCHAR
STARTCHAR equal
ENCODING 61
SWIDTH 485 0
DWIDTH 10 0
BBX 8 8 1 5
BITMAP
12201021
BFFFFFF5
BFFFFFF4
13433241
21123231
BFFFFFF4
BEFEFFF4
01322120
ENDCHAR
STARTCHAR greater
ENCODING 62
SWIDTH 432 0
DWIDTH 9 0
BBX 8 12 0 1
BITMAP
24445100
2EFFF900
06FFFC00
009FFF70
001EFFF4
0003FFFE
0005FFFB
000BFFF7
007FFF70
08FFFD00
3FFFF300
15643000
ENDCHAR
STARTCHAR question
ENCODING 63
SWIDTH 577 0
DWIDTH 12 0
BBX 9 19 1 -3
BITMAP
0069973000
1AFFFFE500
8FFFFFFF50
EFFFFFFFC0
FFFFFFFFF0
DFFFFFFFF0
BFFC5FFFE0
59A61EFFC0
00004FFF50
0000BFFC00
0000EFF400
0001FF8000
0003B81000
0000000000
005ABB2000
004FFF3000
001FFF4000
000FFF3000
0002000000
ENDCHAR
STARTCHAR at
ENCODING 64
SWIDTH 930 0
DWIDTH 19 0
BBX 18 23 0 -5
BITMAP
000000012100000000
000002AFFFEA100000
00003EFFFFFFE40000
0003EFC86459FF4000
000DE50455525FF400
007F41DFFFFE28FD10
01E90AFFFFFFB1EF90
06F30EFFFFFFC09FF2
0CE00DFFFFFF905FF8
1FC00AFFFEFF704FFC
4FB006FF83FF503FFE
3FA005FC21FF401FFF
1FC00167ABFF300DFE
1FE003FF98FF700AFB
0FF203FF21FFE108F8
0DF703FFAAFFFC6AF4
08FC03FFFFFEAFFFC0
02FF407ABA934DC710
00AFD1000000000000
001DFB100000000000
0002DFEBABCE400000
000019EFFFFE700000
000000145430000000
ENDCHAR
STARTCHAR A
ENCODING 65
SWIDTH 494 0
DWIDTH 10 0
BBX 10 20 0 -5
BITMAP
1456665420
2BFFFFFFB1
00DFFFFE10
00DFFFFB00
00CFFFF900
00EFFFF800
00DFFFF700
00CFEFF600
00DFAEF600
00DF6DF500
00EF4CF600
00DFCEF600
01FFFFF500
00EFFFF300
00CF5DE000
00BD1CD000
0077059000
0031017000
0000031000
0000010000
ENDCHAR
STARTCHAR B
ENCODING 66
SWIDTH 517 0
DWIDTH 10 0
BBX 10 16 0 -1
BITMAP
1479BCB940
2EFFFFFFF5
06FFFFFFF9
00EFFFFFF9
00EFFFFFF7
00DFFFFFF5
00BFF8CFF2
00AFF47FF0
00AFF79FC0
00AFFFFF60
009FFFFE30
007FF4CF70
005FF19F60
004FF7CF50
004FFFFF20
001379A700
ENDCHAR
STARTCHAR C
ENCODING 67
SWIDTH 504 0
DWIDTH 10 0
BBX 10 18 0 -3
BITMAP
0018CCC500
02CFFFFF80
0DFFFFFFF5
4FFFFFFFF8
6FFFFFFFF9
6FFFFFFFF9
4FFFFCFFF8
2FFF81EFF6
0EFF909CC4
0CFF800000
09FF600000
07FF70DC80
04FFA3FFA0
00DFFDFF60
00AFFFFB00
00067AC100
0002465000
0000001000
ENDCHAR
STARTCHAR D
ENCODING 68
SWIDTH 522 0
DWIDTH 10 0
BBX 11 18 0 -3
BITMAP
012468981000
2FFFFFFFB100
0EFFFFFFFB00
08FFFFFFFF00
04FFFFFFFF10
01FFFFFFFF00
00FFFEDFFD00
00EFF61EFA00
00CFF30CF700
00BFF30CF400
009FF40EF100
007FF32FE000
004FF9AFD000
003FFFFFB000
003E8DFF4000
00280BC40000
000609500000
000105000000
ENDCHAR
STARTCHAR E
ENCODING 69
SWIDTH 570 0
DWIDTH 11 0
BBX 11 17 0 -2
BITMAP
168AABA97520
2EFFFFFFFF50
06FFFFFFFF00
02FFFFFFFC00
02FFFFFFF700
01FFFFFFF200
00FFFBBFE000
00EFF4002000
00CFFB970000
00BFFFFC0000
009FFFFB0000
007FF3120000
005FF8871000
004FFFFF2000
00399FDD0000
00236B160000
000000010000
ENDCHAR
STARTCHAR F
ENCODING 70
SWIDTH 559 0
DWIDTH 11 0
BBX 11 17 0 -2
BITMAP
268998786300
2DFFFFFFFE20
02FFFFFFFA00
00AFFFFFF600
009FFFFFF400
009FFFFFF300
008FFFFFF200
004FFC338200
003FFFBA6000
003FFFFF9000
002FFFEF8000
000EFE002000
000FFE000000
002FFF000000
003FFF100000
0035B7200000
001130000000
ENDCHAR
STARTCHAR G
ENCODING 71
SWIDTH 499 0
DWIDTH 10 0
BBX 10 17 0 -2
BITMAP
0017995000
05EFFFFD30
1FFFFFFFE0
3FFFFFFFF6
4FFFFFFFF8
3FFFFFFFF7
1FFFCEFFF4
0EFF25FFF2
0CFF11DFF2
0AFF042430
08FF2CFFE1
06FF4AEFF1
04FF71BFF0
01EFECFFE0
00AFFFFF90
001A8DDA10
0006233100
ENDCHAR
STARTCHAR H
ENCODING 72
SWIDTH 726 0
DWIDTH 15 0
BBX 14 19 0 -4
BITMAP
00047960A99762
3DFFFF20CFFFF9
06FFFF106FFFF1
03FFFF00AFFFA0
01FFFF00CFFF40
00CFFF00CFFF10
00AFFE00CFFD00
007FFE00CFF800
004FFEBBFFF600
002FFFFFFFF200
000FFFCCFFF100
000EFF04FFE000
000CFF15FFA000
000BFF15FF9000
000BFF17FF7000
00094303DC5000
00000000221000
00000003000000
00000005000000
ENDCHAR
STARTCHAR I
ENCODING 73
SWIDTH 401 0
DWIDTH 8 0
BBX 8 16 0 -1
BITMAP
4CCBCBB4
3EFFFFE1
03FFFF80
00BFFF70
00AFFF70
00CFFF50
00CFFF30
00BFFE00
00AFFF00
008FFF00
006FFB00
004FFC00
002FFC00
000FFA00
000BBB00
00056400
ENDCHAR
STARTCHAR J
ENCODING 74
SWIDTH 455 0
DWIDTH 9 0
BBX 10 16 -1 -1
BITMAP
0000899862
0000AFFFE2
00004FFFB0
00001FFF80
00001FFF20
00003FFF00
00005FFF00
00005FFC00
00004FF900
00014FF700
2AC45FF500
5FF45FF400
2FF79FF100
1FFFFFC000
06ECED7000
0004722000
ENDCHAR
STARTCHAR K
ENCODING 75
SWIDTH 580 0
DWIDTH 12 0
BBX 11 16 0 -1
BITMAP
49BA65198520
2CFFF72FFF90
05FFF85FF800
00DFF99F9000
008FFADF5000
005FFFFF2000
004FFFFF0000
004FFFFF2000
000FFFFF2000
000DFFFF3000
000BFFFF4000
000AFEFF6000
0009F89FA000
0007F74FD000
0006F91FF000
000235075000
ENDCHAR
STARTCHAR L
ENCODING 76
SWIDTH 416 0
DWIDTH 8 0
BBX 9 17 0 -2
BITMAP
6BBBA99000
0CFFFE2000
0AFFF70000
07FFF70000
05FFF70000
05FFF50000
04FFF40000
00FFF60000
00EFF60000
00EFF60000
00AFF60000
00AFF70000
008FFEB890
006FFFFFB0
002FFDFF80
0006569D50
0001010400
ENDCHAR
STARTCHAR M
ENCODING 77
SWIDTH 740 0
DWIDTH 15 0
BBX 14 17 0 -1
BITMAP
00000010101000
279BDF60ECEA74
2EFFFF80FFFFF8
05FFFFD3FFFFD0
02FFFFF8FFFFB0
01FFFFFEFFFF80
00CFFFFFFFFF60
00AFFFFFFFFF50
00AFFFFFFFFF60
007FFEFFFEFF60
005FFAFFCEFF50
002FFACF9CFF40
000EFCAF8BFF20
000CFD7F5CFD00
000BFD3F2DFC00
0009980A288A00
00054100001400
ENDCHAR
STARTCHAR N
ENCODING 78
SWIDTH 610 0
DWIDTH 12 0
BBX 12 19 0 -4
BITMAP
0668873B8631
4FFFFA0EFFF4
05FFFE1CFF70
03FFFF5BFF40
02FFFFACFF20
01FFFFFDFF10
00EFFFFFFE00
00DFFFFFFB00
00BFFFFFF900
008FFFFFF800
005FFBFFF700
003FF7FFF600
001FF3FFF500
000FF49FF400
000EF56FF200
000DC62FB100
000715084000
000604030000
000001000000
ENDCHAR
STARTCHAR O
ENCODING 79
SWIDTH 504 0
DWIDTH 10 0
BBX 10 17 0 -2
BITMAP
0017A97200
02DFFFFF60
0DFFFFFFF4
5FFFFFFFF6
6FFFFFFFF8
4FFFFFFFF6
3FFFDCFFF7
0FFF44FFF8
0DFF22FFF7
0BFF10FFF6
09FF30FFE1
06FF53FFD0
03FF96FF90
02FFFEFF50
008FFFFD00
000687A700
0000243100
ENDCHAR
STARTCHAR P
ENCODING 80
SWIDTH 545 0
DWIDTH 11 0
BBX 11 16 0 -1
BITMAP
2689ACAA8100
2CFFFFFFFC00
02FFFFFFFF40
00CFFFFFFF60
00BFFFFFFF20
00AFFFFFFF00
008FFE7CFE00
005FFF07FD00
002FFF07FC00
000FFF6AFA00
000DFFFFF600
000CFFCC8000
0009FF000000
0009FF100000
0007FF200000
00027B300000
ENDCHAR
STARTCHAR Q
ENCODING 81
SWIDTH 520 0
DWIDTH 10 0
BBX 11 18 0 -3
BITMAP
00027A820000
018FFFFE5000
0CFFFFFFF500
1EFFFFFFFA00
6FFFFFFFFD00
7FFFFFFFFE00
6FFFF6BFFD00
3FFFF08FFC00
0EFFE06FFB00
09FFC05FFB00
09FFE05FF900
04FFF39FF800
00CFFADFF400
004FFFFFE000
0006FFFFF910
00006CBEFC00
00000005E100
000000005000
ENDCHAR
STARTCHAR R
ENCODING 82
SWIDTH 599 0
DWIDTH 12 0
BBX 12 17 0 -2
BITMAP
0267BCB98100
4EFFFFFFFE60
06FFFFFFFFF5
00CFFFFFFFF8
006FFFFFFFF8
006FFFFFFFF7
005FFF58FFF6
004FFF20FFF4
001FFF34FFF1
000CFFFFFFB0
0009FFFFFE50
0007FF9EFD00
0006FF3AFF30
0004FF59FF30
0003FF67FF40
00008742AD70
000001000010
ENDCHAR
STARTCHAR S
ENCODING 83
SWIDTH 504 0
DWIDTH 10 0
BBX 10 17 0 -2
BITMAP
00027BA300
01AFFFFF80
09FFFFFFF8
1EFFFFFFF9
5FFFFFFFF8
7FFFFFFFF7
7FFFDBFFF7
6FFF82EDF6
2FFFE85012
09FFFFFB10
006DFFFFA0
001138FFE0
0BFF92FFC0
08FFEDFF60
01EFFFFD00
004A797600
0000020000
ENDCHAR
STARTCHAR T
ENCODING 84
SWIDTH 622 0
DWIDTH 12 0
BBX 12 18 0 -3
BITMAP
136899998520
1DFFFFFFFFFA
08FFFFFFFFE2
03FFFFFFFFD0
00FFFFFFFFD0
00EFFFFFFFB0
00DFFFFFFF90
00775FFF3550
00000FFF2000
00000FFF3000
00001FFF0000
00001FFE1000
00000FFD0000
00000CFF0000
00000CFF0000
00000DFE0000
00000BB40000
000001000000
ENDCHAR
STARTCHAR U
ENCODING 85
SWIDTH 637 0
DWIDTH 13 0
BBX 13 17 0 -2
BITMAP
379BC705764100
0BFFF909FFFC10
06FFF80AFFF400
04FFF80AFFF100
02FFFB0AFFC000
00FFFB0BFF9000
00DFFB0CFF5000
00BFF80CFF2000
009FF60EFF1000
00AFF70EFF0000
009FF91FFD0000
007FFB2FFB0000
003FFEBFF80000
001EFFFFF50000
0007E88A700000
00007026000000
00000001000000
ENDCHAR
STARTCHAR V
ENCODING 86
SWIDTH 570 0
DWIDTH 11 0
BBX 12 17 0 -2
BITMAP
589BA01CA992
1CFFB04FFF90
04FFD07FFF10
00FFD09FFB00
00DFE0CFF600
00DFF1EFF200
00CFF4FFD000
00BFF5FFA000
00AFF8FF7000
007FFAFF4000
005FFEFF1000
004FFFFC0000
000EFFF90000
000CFFF50000
000AFFF10000
0006FED00000
000134500000
ENDCHAR
STARTCHAR W
ENCODING 87
SWIDTH 777 0
DWIDTH 16 0
BBX 16 17 0 -1
BITMAP
0000000110000000
0014730ED04B8510
5BFFF73FF05FFFD3
08FFF96FF4BFFD10
009FFB9FF7EFF400
001FFDBFFDFFA000
000EFFEFFFFF3000
000AFFFFFFFD0000
0003FFFFFFF90000
0000BFFFFFF90000
00007FFFFFF60000
00004FFBFFF20000
00001FF8FFF00000
00000CF6DF900000
000008F3BF400000
00000395AE200000
0000000101000000
ENDCHAR
STARTCHAR X
ENCODING 88
SWIDTH 587 0
DWIDTH 12 0
BBX 12 17 0 -2
BITMAP
036993286410
4BFFF93FFFE6
00AFFB8FFC20
002EFFEFE100
0008FFFF8000
0002FFFF4000
0000EFFF2000
0000EFFE0000
0000CFF90000
00008FF90000
00009FF80000
0000CFFA0000
0000EEFD0000
0003FACF3000
0006F8AF7000
000AA4557000
000000001000
ENDCHAR
STARTCHAR Y
ENCODING 89
SWIDTH 688 0
DWIDTH 14 0
BBX 15 16 0 -1
BITMAP
269AB9005A510000
18FFFF309FFFD710
003DFFC0DFFF8000
0004FFFAFFF70000
00005FFFFFA00000
00000DFFFF200000
000007FFFF000000
000003FFFD000000
000000BFFC000000
0000006FFB000000
0000004FFA000000
0000001FF9000000
0000000FF8000000
0000000EF7000000
0000000DF6000000
0000000862000000
ENDCHAR
STARTCHAR Z
ENCODING 90
SWIDTH 695 0
DWIDTH 14 0
BBX 14 16 0 -1
BITMAP
036ABBBBB95200
2FFFFFFFFFFFD5
0BFFFFFFFFFFD0
04FFFFFFFFFF50
00DFFFFFFFFD00
009FFFFFFFF600
007FFCEFFFD000
005A11EFFC2000
000008FFC10000
00000DFF300000
00002FF8000000
00008FE1000000
0001EFEBA40000
0008FFFFF50000
0008EDFFE10000
00002125400000
ENDCHAR
STARTCHAR bracketleft
ENCODING 91
SWIDTH 410 0
DWIDTH 8 0
BBX 7 19 1 -1
BITMAP
22221100
9FFFFF50
9FFFFF80
9FFFFF80
9FFEDC70
9FF50000
BFF50000
BFF50000
BFF50000
CFF50000
CFF50000
DFF60000
DFF60000
CFF60000
AFF60000
8FF83330
5FFFFFB0
3FFBFF40
06115200
ENDCHAR
STARTCHAR backslash
ENCODING 92
SWIDTH 292 0
DWIDTH 6 0
BBX 6 18 0 -2
BITMAP
750000
AD0000
8F3000
2F8000
1F9000
0CD000
07F300
03FB00
00DF00
008F40
004F70
001EB0
000BB0
0006E0
0002F4
0000CA
00008E
000046
ENDCHAR
STARTCHAR bracketright
ENCODING 93
SWIDTH 407 0
DWIDTH 8 0
BBX 7 19 0 -1
BITMAP
02233210
4EFFFF90
6FFFFF90
6FFFFF90
5CDEFF90
0003FFA0
0003FFB0
0002FFC0
0001FFD0
0000FFD0
0000FFE0
0000FFF0
0000FFE0
0001FFD0
0001FFC0
3334FFD0
9FFFFFD0
8FFFFFD0
02442460
ENDCHAR
STARTCHAR asciicircum
ENCODING 94
SWIDTH 523 0
DWIDTH 10 0
BBX 10 8 0 14
BITMAP
0002224000
000EFFF500
006FFFFC00
00CFFEFF50
04FFA5FFC0
0BFF20BFF5
2FF9002EF7
04A0000580
ENDCHAR
STARTCHAR underscore
ENCODING 95
SWIDTH 452 0
DWIDTH 9 0
BBX 8 4 0 -1
BITMAP
08886768
1FFFFFFE
1FFFFFFE
06777667
ENDCHAR
STARTCHAR grave
ENCODING 96
SWIDTH 444 0
DWIDTH 9 0
BBX 7 6 1 15
BITMAP
00100000
05C20000
0AFE3000
AFFFE600
15AEFF70
00003840
ENDCHAR
STARTCHAR a
ENCODING 97
SWIDTH 479 0
DWIDTH 10 0
BBX 10 17 0 -2
BITMAP
49ACDDBDE6
1CFFFFFF90
01EFFFFF30
00EFFFFF10
00CFFFFF10
00DFFFFF10
00EFFFFE00
00BFFEFD00
00CFDCFE00
00EFAAFE20
00FF88FE20
01FF78FF10
01EFFFFE00
02FFEFFD00
00EF87FB00
00FF24FB00
0099012300
ENDCHAR
STARTCHAR b
ENCODING 98
SWIDTH 610 0
DWIDTH 12 0
BBX 12 17 0 -2
BITMAP
01357899A930
3EFFFFFFFFE1
08FFFFFFFFF6
01EFFFFFFFF9
006FFFFFFFFB
007FFFFFFFFA
004FFFCCFFF7
001FFF31FFF2
000FFF42FFB0
000EFFFDFF40
000DFFFFFA00
000AFFACFF40
0009FF33FF60
0005FF44FF40
0004FFFDFF10
0003BACFF900
000000026100
ENDCHAR
STARTCHAR c
ENCODING 99
SWIDTH 534 0
DWIDTH 11 0
BBX 11 17 0 -2
BITMAP
0007ADD92000
02BFFFFFD300
0DFFFFFFFD10
4FFFFFFFFF30
7FFFFFFFFF20
6FFFFFFFFF30
3FFFFDFFFF10
0FFFE18FFF00
0BFFE04FFD00
0AFFD0012300
07FFC0000000
04FFE05C7000
00FFF2BFE000
00BFFBFFB000
005FFFFE4000
0005AAC50000
000000100000
ENDCHAR
STARTCHAR d
ENCODING 100
SWIDTH 573 0
DWIDTH 11 0
BBX 12 18 0 -3
BITMAP
03579BA74000
2EFFFFFFF700
0CFFFFFFFF70
06FFFFFFFFE1
02FFFFFFFFF3
00CFFFFFFFF3
008FFFFFFFF1
005FFF6AFFD0
002FFF03FF90
000FFF00FF50
000DFD02FF10
000BFF04FC00
0009FE08F900
0008FF6CF700
0007FFFFF200
0006EAFFD000
0005509B3000
000100000000
ENDCHAR
STARTCHAR e
ENCODING 101
SWIDTH 632 0
DWIDTH 13 0
BBX 12 17 0 -2
BITMAP
01579AAA9752
4FFFFFFFFFFB
0AFFFFFFFFF2
02FFFFFFFFA0
00FFFFFFFF70
00DFFFFFFF50
00AFFFEFFF30
008FFF203800
005FFF422000
002FFFFFF100
000FFFFFF000
000EFFA9B000
000CFF200000
0009FFDFD400
0006FFFFF300
000363A7A200
000000002000
ENDCHAR
STARTCHAR f
ENCODING 102
SWIDTH 559 0
DWIDTH 11 0
BBX 11 17 0 -2
BITMAP
378998786400
2DFFFFFFFE20
02EFFFFFF900
00AFFFFFF600
009FFFFFF400
009FFFFFF300
007FFFFFF200
004FFC238200
003FFEBB3000
003FFFFF4000
002FFFEF5000
000EFE002000
001FFE000000
003FFE000000
003FFF000000
0035A7000000
001042100000
ENDCHAR
STARTCHAR g
ENCODING 103
SWIDTH 546 0
DWIDTH 11 0
BBX 11 17 0 -2
BITMAP
003898850000
03EFFFFFD200
2FFFFFFFFD00
4FFFFFFFFF50
6FFFFFFFFF80
4FFFFFFFFF80
2FFFEDFFFF60
0EFFA1CFFF20
0BFF807FFF00
09FF71236700
04FF93FC9600
01FFD2FFFD00
00EFF27EFB00
00BFF97FFA00
007FFFFFF900
001CFFFEF500
000145623000
ENDCHAR
STARTCHAR h
ENCODING 104
SWIDTH 730 0
DWIDTH 15 0
BBX 15 17 0 -2
BITMAP
1236AC80ACCAA610
2CFFFF209FFFF900
04FFFF204FFFF200
02FFFF209FFFB000
00FFFF10AFFF5000
00CFFF109FFF3000
009FFF009FFE1000
006FFF00AFFA0000
003FFFDDFFF70000
001FFFFFFFF40000
000FFFA9FFF30000
000EFF23FFE10000
000DFF33FFD00000
000BFF34FFB00000
0009FF25FF900000
00072101C9700000
0000000001100000
ENDCHAR
STARTCHAR i
ENCODING 105
SWIDTH 412 0
DWIDTH 8 0
BBX 8 16 0 -1
BITMAP
48BCBB84
1EFFFFF2
03EFFFC0
009FFF80
009FFF60
00AFFF30
00AFFF00
009FFD00
007FFD00
005FFF00
002FFC00
000FFA00
000EF900
000EF800
000BC700
00013500
ENDCHAR
STARTCHAR j
ENCODING 106
SWIDTH 458 0
DWIDTH 9 0
BBX 10 16 -1 -1
BITMAP
0005BBA630
0002FFFFF4
0000BFFFF0
00008FFFB0
00004FFF60
00004FFF70
00004FFF60
00004FFF50
00002FFF40
00011FFF10
3AB71FFF00
4FFA1FFE00
0EFE5FFB00
0AFFFFF800
02CEFFF300
0001385200
ENDCHAR
STARTCHAR k
ENCODING 107
SWIDTH 636 0
DWIDTH 13 0
BBX 13 16 0 -1
BITMAP
03688834ABA710
4EFFFF19FFE500
04FFFF0DFF4000
00EFFF2FF50000
007FFF5FF20000
001FFF8FF00000
000FFFAF800000
000EFFEF300000
000DFFFE000000
000AFFFF100000
0006FFFF700000
0005FFDFD00000
0002FF3EF30000
0002FF09F80000
0000FF15FD0000
00005422751000
ENDCHAR
STARTCHAR l
ENCODING 108
SWIDTH 438 0
DWIDTH 9 0
BBX 10 17 0 -2
BITMAP
159BBBDB10
2BFFFFA000
04FFFF3000
02FFFF2000
00FFFF1000
00DFFE0000
00CFFF0000
007FFE0000
003FFE0000
003FFD0000
002FFC0000
000FFD0000
000EFFDAB3
000CFFFFE0
000AFDCFB0
0008323D70
0002000200
ENDCHAR
STARTCHAR m
ENCODING 109
SWIDTH 770 0
DWIDTH 15 0
BBX 15 18 0 -2
BITMAP
0000000010000000
000369B07CDC9620
3AEFFFD08FFFFE40
0AFFFFF1DFFFF300
03FFFFF6FFFFE000
02FFFFFCFFFFA000
02EFFFFFFFFF7000
00CFFFFFFFFF5000
00BFFFFFFFFF3000
00AFFFFFFFFF0000
008FFDFFCFFD0000
006FFAFF9FFA0000
003FF9CF7FF70000
002FFBBD7FF20000
001FF9899FC00000
000D99669CA00000
0009001011300000
0003000000000000
ENDCHAR
STARTCHAR n
ENCODING 110
SWIDTH 664 0
DWIDTH 13 0
BBX 13 17 0 -2
BITMAP
59ABCB24988880
2EFFFF52FFFF60
08FFFF90EFFD00
05FFFFF0EFF800
04FFFFF5FFF400
03FFFFFBFFF200
02FFFFFFFFF000
01FFFFFFFFD000
00EFFFFFFFB000
00BFFFFFFF8000
007FFAFFFF6000
007FF6FFFF3000
005FF3CFFE0000
003FF3AFFC0000
002FF26FF60000
000EB25FC30000
00011003710000
ENDCHAR
STARTCHAR o
ENCODING 111
SWIDTH 545 0
DWIDTH 11 0
BBX 11 17 0 -2
BITMAP
0016ABA81000
02DFFFFFD300
0CFFFFFFFC20
4FFFFFFFFF60
6FFFFFFFFF50
4FFFFFFFFF70
2FFFFAFFFF60
0FFF90DFFF60
0DFF70CFFF30
0BFF609FFF10
08FF70AFFB00
05FF90DFF700
01FFD1FFF200
00DFFEFFD000
006BFFFF6000
000053EB1000
000000230000
ENDCHAR
STARTCHAR p
ENCODING 112
SWIDTH 557 0
DWIDTH 11 0
BBX 11 16 0 -1
BITMAP
268AA99A7100
2DFFFFFFFD10
02FFFFFFFF70
00CFFFFFFF90
00BFFFFFFF70
00BFFFFFFF60
009FFE7DFF40
008FFD07FF20
006FFC07FE00
004FFD5BFB00
001FFFFFF700
000EFFBED100
000DFF100000
000CFF000000
000CFF100000
00089B100000
ENDCHAR
STARTCHAR q
ENCODING 113
SWIDTH 562 0
DWIDTH 11 0
BBX 11 18 0 -3
BITMAP
00039CB93000
02AFFFFFE600
0DFFFFFFFF30
2EFFFFFFFF80
6FFFFFFFFFA0
7FFFFFFFFFB0
5FFFF72EFFA0
2FFFF41CFF90
0DFFF209FF80
09FFF108FF80
08FFF309FF60
03FFF75EFF50
00BFFDBFFE10
002EFFFFFC00
0003EFFFFFA0
000039A8FF70
000000005B00
000000000300
ENDCHAR
STARTCHAR r
ENCODING 114
SWIDTH 616 0
DWIDTH 12 0
BBX 12 17 0 -2
BITMAP
1257ABA97200
4FFFFFFFFFB2
06FFFFFFFFFD
00BFFFFFFFFE
007FFFFFFFFC
006FFFFFFFF9
004FFF98FFF6
002FFF40DFF3
002FFF51FFF1
001EFFFEFFE0
000CFFFFFF70
000CFFCFFA00
000BFF2DFB00
000AFF4CFB00
000AFF3BFB00
0009B718EC00
000100001600
ENDCHAR
STARTCHAR s
ENCODING 115
SWIDTH 481 0
DWIDTH 10 0
BBX 10 17 0 -2
BITMAP
0007AB8200
01BFFFFE30
09FFFFFFE2
2FFFFFFFF2
6FFFFFFFF0
7FFFFFFFE0
7FFFCEFFD0
5FFF57FFC0
2FFFB63370
0BFFFFE300
01BFFFFA00
00027DFF00
06CC58FF10
07FFBCFB00
01EFFFF400
006FCA9000
0001000000
ENDCHAR
STARTCHAR t
ENCODING 116
SWIDTH 683 0
DWIDTH 14 0
BBX 13 18 0 -3
BITMAP
0258CCCCCB9630
4FFFFFFFFFFFB0
0AFFFFFFFFFF30
03FFFFFFFFFB00
00EFFFFFFFFB00
00BFFFFFFFFA00
009FFFFFFEF800
007849FFE14400
000006FFF00000
000006FFF00000
000005FFF00000
000004FFF00000
000002FFE00000
000000EFE00000
000000EFD00000
000000EFC00000
000000ACC00000
00000002300000
ENDCHAR
STARTCHAR u
ENCODING 117
SWIDTH 708 0
DWIDTH 14 0
BBX 15 16 0 -1
BITMAP
2469BB4047420000
1BFFFF508FFFD810
04FFFF50BFFFF500
02FFFF509FFFC000
00DFFF808FFF7000
00AFFF909FFF1000
007FFF909FFD0000
005FFF70AFFA0000
003FFF60DFF80000
002FFF60DFF80000
001EFF90EFF50000
000BFFB2FFF20000
0005FFEAFFF10000
0002FFFFFFB00000
00006D87CB400000
0000000010000000
ENDCHAR
STARTCHAR v
ENCODING 118
SWIDTH 644 0
DWIDTH 13 0
BBX 13 17 0 -2
BITMAP
1689A601BA8740
08FFF905FFFB00
01FFFA09FFF200
00AFFE0AFFB000
005FFF0BFF7000
002FFF1CFF4000
000EFF4CFF1000
000BFF5EFD0000
0008FF6FFA0000
0004FF8FF70000
0000EFDFF40000
00009FFFF10000
00006FFFC00000
00001EFF800000
000008FF600000
000006FB100000
00000121000000
ENDCHAR
STARTCHAR w
ENCODING 119
SWIDTH 704 0
DWIDTH 14 0
BBX 15 15 0 0
BITMAP
0136606B03641000
5FFFE0BF24FFF810
04FFF2EF77FFC000
00AFF4FFB9FF6000
004FFAFFEDFE1000
002FFEFFFFF90000
000CFFFFFFF40000
0005FFFFFFF10000
0000FFFFFFE10000
0000CFFFFFC00000
00008FFCFFC00000
00004FF7FFC00000
00000EF5FF700000
00000AF2DF500000
00000481BD400000
ENDCHAR
STARTCHAR x
ENCODING 120
SWIDTH 599 0
DWIDTH 12 0
BBX 12 16 0 -1
BITMAP
247AB42A8520
29FFFA2FFFF8
008FFC7FFC20
001EFFEFE100
0006FFFF9000
0001FFFF6000
0000DFFF3000
0000DFFF1000
0000BFFA0000
00006FFA0000
00009FF90000
0000BFFC0000
0000DFEE0000
0001FBBF5000
0005F99F9000
000894347000
ENDCHAR
STARTCHAR y
ENCODING 121
SWIDTH 604 0
DWIDTH 12 0
BBX 12 17 0 -2
BITMAP
159990076200
09FFF60DFFE3
006EFC3FFF50
000AFFAFF800
0002EFFFC000
0000CFFF7000
00009FFF5000
00005FFF4000
00002FFF3000
00000DFF1000
00000BFF0000
00000BFE0000
00000BFF0000
00000CFD0000
00000BF90000
000009B60000
000001000000
ENDCHAR
STARTCHAR z
ENCODING 122
SWIDTH 622 0
DWIDTH 12 0
BBX 12 17 0 -2
BITMAP
148BCBCCB852
2FFFFFFFFFF9
0AFFFFFFFFF3
02FFFFFFFFB0
00BFFFFFFF70
008FFFFFFF50
005FFDEFFC00
002B33FFD200
000009FF4000
00000DFB0000
00003FF40000
00007FE00000
0000CFB87100
0002FFFFF100
0004FFFFE000
00007267A000
000000001000
ENDCHAR
STARTCHAR braceleft
ENCODING 123
SWIDTH 372 0
DWIDTH 7 0
BBX 8 21 0 -3
BITMAP
00000010
000018E1
0005EFF0
002EFFD0
00AFFFB0
04FFFF90
0AFFFF80
0DFFFE60
0FFFC100
2FFF7000
3FFF5000
3FFF4000
3FFF3000
2FFF5000
0EFF7000
0AFFD000
04FFF800
00CFFF30
003FFF60
0006EF60
00001400
ENDCHAR
STARTCHAR bar
ENCODING 124
SWIDTH 208 0
DWIDTH 4 0
BBX 2 18 1 -2
BITMAP
7C
BE
CE
DD
9E
AB
BA
BB
BB
BC
BC
BB
BB
8A
9A
B9
BA
99
ENDCHAR
STARTCHAR braceright
ENCODING 125
SWIDTH 338 0
DWIDTH 7 0
BBX 6 20 0 -3
BITMAP
385100
7FFD20
4FFFD2
3FFFF8
2FFFFB
1FFFFC
1FFFFC
04BFFB
003FFB
001FFA
000FF9
000FF8
001FF7
004FF5
006FF2
00AFE0
02CF80
5FFD10
8FE300
484000
ENDCHAR
STARTCHAR asciitilde
ENCODING 126
SWIDTH 535 0
DWIDTH 11 0
BBX 10 5 0 11
BITMAP
0030003710
09F918FFD1
2EFFFFFFFB
04FFFFCFF6
005B920440
ENDCHAR
STARTCHAR exclamdown
ENCODING 161
SWIDTH 347 0
DWIDTH 7 0
BBX 7 25 0 0
BITMAP
06964500
08FFFF20
08FFFF30
08FFFF40
0BFFFF10
2FFFFF20
03578710
00000000
00125000
00BFB000
00CFE000
00CFF000
00CFE000
00DFF100
00EFF400
02FFF200
06FFF300
0BFFF600
0DFFF800
0BFFFA00
08FFFC00
2FFFFD00
5FFFFF50
3AFDD920
00100000
ENDCHAR
STARTCHAR cent
ENCODING 162
SWIDTH 552 0
DWIDTH 11 0
BBX 11 29 0 -8
BITMAP
000007100000
00000D000000
00000E000000
00000E100000
00000F100000
00000E100000
0005AFDA3000
01BFFFFFD400
0BFFFFFFFD10
3FFFFFFFFF30
6FFFFFFFFF30
5FFFFFFFFF30
1FFFFEEFFF20
0DFFF17FFF10
0AFFF13EFE00
09FFE0001200
06FFE0000000
02FFF15C7100
00EFF3AFE100
00AFFBFFC000
005FFFFF6000
0005ADC60000
00000B100000
00000B000000
00000C000000
00000D000000
00000D100000
00000C100000
000003100000
ENDCHAR
STARTCHAR sterling
ENCODING 163
SWIDTH 589 0
DWIDTH 12 0
BBX 12 17 0 -2
BITMAP
001798861000
02CFFFFFE400
0DFFFFFFFF30
1FFFFFFFFFB0
1FFFFFFFFFF0
0FFFFFFFFFF1
0DFFFDFFFFC0
0BFFE09FFF70
08FFC04FFF30
1AFFD7235820
1EFFFF300000
00AFF4000000
00BFFEDBBA00
00EFFFFFF600
00FFFCFFE100
0062B67D9000
000020040000
ENDCHAR
STARTCHAR yen
ENCODING 165
SWIDTH 692 0
DWIDTH 14 0
BBX 15 17 -1 1
BITMAP
0000220001000000
2BEEFF600CECA970
006EFFD11FFFFA10
0002FFF68FFFC000
00006FFDFFFD1000
00000AFFFFF30000
000005FFFFF00000
00799AFFFFFFEC00
008CCCDFFFC7A600
0000003FFF800000
009EDDDFFFEDEE10
0058899FFFA88800
0000000EFF400000
0000000DFF400000
0000000AFF400000
00000006FE500000
0000000241100000
ENDCHAR
STARTCHAR brokenbar
ENCODING 166
SWIDTH 201 0
DWIDTH 4 0
BBX 2 18 1 -2
BITMAP
B8
DB
DD
CD
E9
BA
67
00
00
00
00
AB
BB
A9
AA
9B
9C
89
ENDCHAR
STARTCHAR section
ENCODING 167
SWIDTH 477 0
DWIDTH 10 0
BBX 10 19 0 -4
BITMAP
0005CEB500
007FFFFF90
03FFFFFFF1
07FFFFFFB0
06FFFFFF80
05FFEBFF40
02FFC2DC10
01FFFB7100
05FFFFFB00
2EFE8DFE10
7FFD04FF10
7FFD09FA00
3FFFBDF400
0CFFFFD000
015BDFD100
05884FF100
0AFEAFB000
03FFFF5000
0079660000
ENDCHAR
STARTCHAR dieresis
ENCODING 168
SWIDTH 633 0
DWIDTH 13 0
BBX 11 5 1 16
BITMAP
5A88219BDB10
9FFF40FFFF10
9FFF40FFFF10
9FFF40FFFF20
7DFE30CDBC10
ENDCHAR
STARTCHAR copyright
ENCODING 169
SWIDTH 783 0
DWIDTH 16 0
BBX 15 18 0 -2
BITMAP
0000004652000000
00007EFFFFB20000
001BE613426D5000
00BE32DFFD21C300
05F51DFFFFC02C00
0CC05FFFFFF30A50
1F607FFFFFF30590
3F207FFFFFF303C0
4F005FF98FF103E0
3F303FF63CC004D0
2F402FF5000005C0
1F600EF536200880
0BA00CF78F801E40
05F207FEFF508C00
00BC13CEEB06F400
002DC411239F8000
0001BFECDFE60000
0000036775100000
ENDCHAR
STARTCHAR guillemotleft
ENCODING 171
SWIDTH 759 0
DWIDTH 15 0
BBX 15 12 0 1
BITMAP
0000211200222100
0006FFF905FFFE20
001DFFC01DFFF400
00AFFF40AFFF9000
07FFFB03FFFE1000
2FFFE209FFF60000
3FFF9009FFF20000
0AFFF302DFFA0000
01CFF9007FFE2000
002EFF800BFFD100
0004FFF701DFFC10
0000488910278940
ENDCHAR
STARTCHAR uni00AD
ENCODING 173
SWIDTH 446 0
DWIDTH 9 0
BBX 7 4 1 5
BITMAP
34322230
DFFFFFC0
DFFEFFB0
02321120
ENDCHAR
STARTCHAR registered
ENCODING 174
SWIDTH 780 0
DWIDTH 16 0
BBX 15 18 0 -2
BITMAP
0000002330000000
00017EEBAB810000
001CF710004B2000
00BFDBFFDA11C200
06F6DFFFFFD04B00
0CC05FFFFFF20C40
2F602FFFFFF20890
5F301FFAAFF107D0
4F100EF73FE008E0
0D000BFDCFA008D0
0E1008FFFF500690
0C6003FD9F500460
07D100DF3EE00730
01EA00CE4DF21B00
005FB1141365C400
0006FE9546AF6000
00003BFFFFC40000
0000002442000000
ENDCHAR
STARTCHAR macron
ENCODING 175
SWIDTH 446 0
DWIDTH 9 0
BBX 7 4 1 5
BITMAP
34322230
DFFFFFC0
DFFEFFB0
02321120
ENDCHAR
STARTCHAR acute
ENCODING 180
SWIDTH 439 0
DWIDTH 9 0
BBX 7 6 1 15
BITMAP
00001000
0004E300
006FF700
08FFFF60
AFFD9400
77200000
ENDCHAR
STARTCHAR mu
ENCODING 181
SWIDTH 679 0
DWIDTH 14 0
BBX 14 16 0 -1
BITMAP
357ABA00662200
3FFFFE00DFFFC5
0AFFFE01FFFFD2
07FFFE00EFFF60
04FFFF20EFFF10
01FFFF30FFFB00
00DFFF30FFF700
00BFFF11FFF500
009FFF04FFF300
008FFF04FFF200
006FFF26FFE000
002FFF2AFFB000
000CFFAEFF9000
0009FFFFFF4000
0003AC2BCA0000
00000000200000
ENDCHAR
STARTCHAR paragraph
ENCODING 182
SWIDTH 591 0
DWIDTH 12 0
BBX 12 16 0 -1
BITMAP
005899ABA853
0CFFFFFFFFF6
5FFFFFFFFF70
6FFFFFF39F30
4FFFFFF29F20
2FFFFFF1AF10
0DFFFFF0AF00
08FFFFF0AF00
02EFFFE0BD00
004978E0AA00
000005E0A700
000004E0A400
000003D0A400
000004D0A300
000004D0A300
00000490A200
ENDCHAR
STARTCHAR periodcentered
ENCODING 183
SWIDTH 388 0
DWIDTH 8 0
BBX 6 7 1 4
BITMAP
579B94
BFFFF7
9FFFF6
8FFFF8
6FFFF7
6FFFF7
264131
ENDCHAR
STARTCHAR cedilla
ENCODING 184
SWIDTH 270 0
DWIDTH 5 0
BBX 4 7 1 -7
BITMAP
5F30
AD00
EB63
ACF8
01F7
ACF7
8894
ENDCHAR
STARTCHAR guillemotright
ENCODING 187
SWIDTH 767 0
DWIDTH 15 0
BBX 15 12 0 1
BITMAP
2454510020000000
2EFFF805FEE40000
06FFFB009FFE3000
009FFF600BFFC100
001EFFE202FFF900
0003FFFB00BFFF60
0006FFF7004FFFA0
000BFFF401DFFF60
009FFF5008FFFC00
09FFFC002FFFE200
3FFFE300BFFF5000
15643004ABB90000
ENDCHAR
STARTCHAR Agrave
ENCODING 192
SWIDTH 494 0
DWIDTH 10 0
BBX 11 27 -1 -5
BITMAP
001000000000
04D200000000
09FE40000000
8FFFF7000000
159EFF900000
000037500000
000000000000
014566654200
02BFFFFFFB10
000DFFFFE100
000DFFFFB000
000CFFFF9000
000EFFFF8000
000DFFFF7000
000CFEFF6000
000DFAEF6000
000DF6DF5000
000EF4CF6000
000DFCEF6000
001FFFFF5000
000EFFFF3000
000CF5DE0000
000BD1CD0000
000770590000
000310170000
000000310000
000000100000
ENDCHAR
STARTCHAR Aacute
ENCODING 193
SWIDTH 494 0
DWIDTH 10 0
BBX 12 27 0 -5
BITMAP
000000000100
000000003E30
00000005FF70
0000007FFFF7
00000AFFD941
000006720000
000000000000
145666542000
2BFFFFFFB100
00DFFFFE1000
00DFFFFB0000
00CFFFF90000
00EFFFF80000
00DFFFF70000
00CFEFF60000
00DFAEF60000
00DF6DF50000
00EF4CF60000
00DFCEF60000
01FFFFF50000
00EFFFF30000
00CF5DE00000
00BD1CD00000
007705900000
003101700000
000003100000
000001000000
ENDCHAR
STARTCHAR Acircumflex
ENCODING 194
SWIDTH 494 0
DWIDTH 10 0
BBX 10 28 0 -5
BITMAP
002CBCA000
009FFFF300
01EFFFFB00
07FF8DFF30
0EF903EFB0
6FB0005FF3
3A10000680
0000000000
1456665420
2BFFFFFFB1
00DFFFFE10
00DFFFFB00
00CFFFF900
00EFFFF800
00DFFFF700
00CFEFF600
00DFAEF600
00DF6DF500
00EF4CF600
00DFCEF600
01FFFFF500
00EFFFF300
00CF5DE000
00BD1CD000
0077059000
0031017000
0000031000
0000010000
ENDCHAR
STARTCHAR Atilde
ENCODING 195
SWIDTH 494 0
DWIDTH 10 0
BBX 10 26 0 -5
BITMAP
036002A910
5FF77DFFC0
4FFFFFFFF6
07FFFAAFB0
0047200300
0000000000
1456665420
2BFFFFFFB1
00DFFFFE10
00DFFFFB00
00CFFFF900
00EFFFF800
00DFFFF700
00CFEFF600
00DFAEF600
00DF6DF500
00EF4CF600
00DFCEF600
01FFFFF500
00EFFFF300
00CF5DE000
00BD1CD000
0077059000
0031017000
0000031000
0000010000
ENDCHAR
STARTCHAR Adieresis
ENCODING 196
SWIDTH 494 0
DWIDTH 10 0
BBX 10 26 0 -5
BITMAP
7A88029CD9
DFFF14FFFC
DFFF13FFFC
DFFF03FFFD
BEFE03DCBA
0000000000
1456665420
2BFFFFFFB1
00DFFFFE10
00DFFFFB00
00CFFFF900
00EFFFF800
00DFFFF700
00CFEFF600
00DFAEF600
00DF6DF500
00EF4CF600
00DFCEF600
01FFFFF500
00EFFFF300
00CF5DE000
00BD1CD000
0077059000
0031017000
0000031000
0000010000
ENDCHAR
STARTCHAR Aring
ENCODING 197
SWIDTH 494 0
DWIDTH 10 0
BBX 10 27 0 -5
BITMAP
0002662000
003EFFE300
009F56EA00
007E00C900
003F98E200
0019EF7000
0000120000
1456665420
2BFFFFFFB1
00DFFFFE10
00DFFFFB00
00CFFFF900
00EFFFF800
00DFFFF700
00CFEFF600
00DFAEF600
00DF6DF500
00EF4CF600
00DFCEF600
01FFFFF500
00EFFFF300
00CF5DE000
00BD1CD000
0077059000
0031017000
0000031000
0000010000
ENDCHAR
STARTCHAR AE
ENCODING 198
SWIDTH 733 0
DWIDTH 15 0
BBX 14 20 0 -5
BITMAP
135789AABA9753
2AFFFFFFFFFFFB
00DFFFFFFFFFF4
00EFFFFFFFFFD0
00DFFFFFFFFF80
00DFFFFFFFFF50
00CFFFFFCAEF40
00CFEFFF800210
00DF9EFFC98100
00EF6DFFFFF300
00EF4CFFFFF100
00DFCEFF812000
01FFFFFFA87300
00EFFFFFFFF600
00CF5ED6FED300
00BD1CB2C55200
00570482805000
00310252605000
00000300000000
00000100000000
ENDCHAR
STARTCHAR Ccedilla
ENCODING 199
SWIDTH 504 0
DWIDTH 10 0
BBX 10 24 0 -9
BITMAP
0018CCC500
02CFFFFF80
0DFFFFFFF5
4FFFFFFFF8
6FFFFFFFF9
6FFFFFFFF9
4FFFFCFFF8
2FFF81EFF6
0EFF909CC4
0CFF800000
09FF600000
07FF70DC80
04FFA3FFA0
00DFFDFF60
00AFFFFB00
00067AC100
0002465000
000000BE00
000000E800
000004F861
000003ADF4
00000006F3
000003BDF2
0000028891
ENDCHAR
STARTCHAR Egrave
ENCODING 200
SWIDTH 570 0
DWIDTH 11 0
BBX 11 23 0 -2
BITMAP
07B100000000
0BFD20000000
BFFFE5000000
16AEFF600000
000038400000
000000000000
168AABA97520
2EFFFFFFFF50
06FFFFFFFF00
02FFFFFFFC00
02FFFFFFF700
01FFFFFFF200
00FFFBBFE000
00EFF4002000
00CFFB970000
00BFFFFC0000
009FFFFB0000
007FF3120000
005FF8871000
004FFFFF2000
00399FDD0000
00236B160000
000000010000
ENDCHAR
STARTCHAR Eacute
ENCODING 201
SWIDTH 570 0
DWIDTH 11 0
BBX 13 24 0 -2
BITMAP
00000000001000
0000000005E100
000000007FF400
00000019FFFE50
000000DFFD8400
00000086200000
00000000000000
168AABA9752000
2EFFFFFFFF5000
06FFFFFFFF0000
02FFFFFFFC0000
02FFFFFFF70000
01FFFFFFF20000
00FFFBBFE00000
00EFF400200000
00CFFB97000000
00BFFFFC000000
009FFFFB000000
007FF312000000
005FF887100000
004FFFFF200000
00399FDD000000
00236B16000000
00000001000000
ENDCHAR
STARTCHAR Ecircumflex
ENCODING 202
SWIDTH 570 0
DWIDTH 11 0
BBX 11 25 0 -2
BITMAP
0005CBC70000
000CFFFE1000
004FFFFF8000
00AFF7EFE100
02FF605FF800
09F80007FE10
059000008500
000000000000
168AABA97520
2EFFFFFFFF50
06FFFFFFFF00
02FFFFFFFC00
02FFFFFFF700
01FFFFFFF200
00FFFBBFE000
00EFF4002000
00CFFB970000
00BFFFFC0000
009FFFFB0000
007FF3120000
005FF8871000
004FFFFF2000
00399FDD0000
00236B160000
000000010000
ENDCHAR
STARTCHAR Edieresis
ENCODING 203
SWIDTH 570 0
DWIDTH 11 0
BBX 11 23 0 -2
BITMAP
09A87049DD70
0FFFD06FFF90
1FFFD06FFF90
1FFFD06FFFB0
0DEFB05DCC70
000000000000
168AABA97520
2EFFFFFFFF50
06FFFFFFFF00
02FFFFFFFC00
02FFFFFFF700
01FFFFFFF200
00FFFBBFE000
00EFF4002000
00CFFB970000
00BFFFFC0000
009FFFFB0000
007FF3120000
005FF8871000
004FFFFF2000
00399FDD0000
00236B160000
000000010000
ENDCHAR
STARTCHAR Igrave
ENCODING 204
SWIDTH 401 0
DWIDTH 8 0
BBX 10 23 -2 -1
BITMAP
0010000000
04D2000000
09FE400000
8FFFF70000
159EFF9000
0000375000
0000000000
004CCBCBB4
003EFFFFE1
0003FFFF80
0000BFFF70
0000AFFF70
0000CFFF50
0000CFFF30
0000BFFE00
0000AFFF00
00008FFF00
00006FFB00
00004FFC00
00002FFC00
00000FFA00
00000BBB00
0000056400
ENDCHAR
STARTCHAR Iacute
ENCODING 205
SWIDTH 401 0
DWIDTH 8 0
BBX 11 23 0 -1
BITMAP
000000001000
00000003E300
0000005FF700
000007FFFF70
0000AFFD9400
000067200000
000000000000
4CCBCBB40000
3EFFFFE10000
03FFFF800000
00BFFF700000
00AFFF700000
00CFFF500000
00CFFF300000
00BFFE000000
00AFFF000000
008FFF000000
006FFB000000
004FFC000000
002FFC000000
000FFA000000
000BBB000000
000564000000
ENDCHAR
STARTCHAR Icircumflex
ENCODING 206
SWIDTH 401 0
DWIDTH 8 0
BBX 10 24 -1 -1
BITMAP
003CBCA000
009FFFF300
01FFFFFB00
08FF8DFF30
0EF903EFB0
6FA0005FF3
4A10000680
0000000000
04CCBCBB40
03EFFFFE10
003FFFF800
000BFFF700
000AFFF700
000CFFF500
000CFFF300
000BFFE000
000AFFF000
0008FFF000
0006FFB000
0004FFC000
0002FFC000
0000FFA000
0000BBB000
0000564000
ENDCHAR
STARTCHAR Idieresis
ENCODING 207
SWIDTH 401 0
DWIDTH 8 0
BBX 10 22 -1 -1
BITMAP
7A88029CD9
DFFF14FFFC
DFFF13FFFC
DFFF03FFFD
BEFE03DCBA
0000000000
04CCBCBB40
03EFFFFE10
003FFFF800
000BFFF700
000AFFF700
000CFFF500
000CFFF300
000BFFE000
000AFFF000
0008FFF000
0006FFB000
0004FFC000
0002FFC000
0000FFA000
0000BBB000
0000564000
ENDCHAR
STARTCHAR Eth
ENCODING 208
SWIDTH 530 0
DWIDTH 11 0
BBX 11 18 0 -3
BITMAP
001368AB8000
04FFFFFFF800
03FFFFFFFF70
00CFFFFFFFC0
007FFFFFFFE0
004FFFFFFFE0
003FFFDDFFC0
001FFF33FF90
144FFF43FF60
3CDFFFD3FF20
000CFF02FD00
000AFF05FA00
0007FF8CF800
0006FFFFF600
0006E8EFD100
000650BB2000
000330750000
000000500000
ENDCHAR
STARTCHAR Ntilde
ENCODING 209
SWIDTH 610 0
DWIDTH 12 0
BBX 12 25 0 -4
BITMAP
0046002A8100
07FF68EFFB00
06FFFFFFFF50
009FFF9AFA00
000472003000
000000000000
0668873B8631
4FFFFA0EFFF4
05FFFE1CFF70
03FFFF5BFF40
02FFFFACFF20
01FFFFFDFF10
00EFFFFFFE00
00DFFFFFFB00
00BFFFFFF900
008FFFFFF800
005FFBFFF700
003FF7FFF600
001FF3FFF500
000FF49FF400
000EF56FF200
000DC62FB100
000715084000
000604030000
000001000000
ENDCHAR
STARTCHAR Ograve
ENCODING 210
SWIDTH 504 0
DWIDTH 10 0
BBX 11 24 -1 -2
BITMAP
001000000000
05D200000000
09FE40000000
9FFFF6000000
15AEFF800000
000037500000
000000000000
00017A972000
002DFFFFF600
00DFFFFFFF40
05FFFFFFFF60
06FFFFFFFF80
04FFFFFFFF60
03FFFDCFFF70
00FFF44FFF80
00DFF22FFF70
00BFF10FFF60
009FF30FFE10
006FF53FFD00
003FF96FF900
002FFFEFF500
0008FFFFD000
0000687A7000
000002431000
ENDCHAR
STARTCHAR Oacute
ENCODING 211
SWIDTH 504 0
DWIDTH 10 0
BBX 12 24 0 -2
BITMAP
000000000100
000000004E30
00000006FF70
0000008FFFF6
00000AFFD940
000007720000
000000000000
0017A9720000
02DFFFFF6000
0DFFFFFFF400
5FFFFFFFF600
6FFFFFFFF800
4FFFFFFFF600
3FFFDCFFF700
0FFF44FFF800
0DFF22FFF700
0BFF10FFF600
09FF30FFE100
06FF53FFD000
03FF96FF9000
02FFFEFF5000
008FFFFD0000
000687A70000
000024310000
ENDCHAR
STARTCHAR Ocircumflex
ENCODING 212
SWIDTH 504 0
DWIDTH 10 0
BBX 10 25 0 -2
BITMAP
003CBC9000
00AFFFF200
02FFFFFA00
08FF7EFF30
1EF803FFA0
7FA0005FF2
4A00000770
0000000000
0017A97200
02DFFFFF60
0DFFFFFFF4
5FFFFFFFF6
6FFFFFFFF8
4FFFFFFFF6
3FFFDCFFF7
0FFF44FFF8
0DFF22FFF7
0BFF10FFF6
09FF30FFE1
06FF53FFD0
03FF96FF90
02FFFEFF50
008FFFFD00
000687A700
0000243100
ENDCHAR
STARTCHAR Otilde
ENCODING 213
SWIDTH 504 0
DWIDTH 10 0
BBX 10 23 0 -2
BITMAP
072004C600
BFD4AFFF60
AFFFFFFFE1
1CFFE8CF60
0166100300
0000000000
0017A97200
02DFFFFF60
0DFFFFFFF4
5FFFFFFFF6
6FFFFFFFF8
4FFFFFFFF6
3FFFDCFFF7
0FFF44FFF8
0DFF22FFF7
0BFF10FFF6
09FF30FFE1
06FF53FFD0
03FF96FF90
02FFFEFF50
008FFFFD00
000687A700
0000243100
ENDCHAR
STARTCHAR Odieresis
ENCODING 214
SWIDTH 504 0
DWIDTH 10 0
BBX 10 23 0 -2
BITMAP
7A88029CD9
DFFF04FFFC
EFFF04FFFB
EFFF04FFFD
BEFD03DCB9
0000000000
0017A97200
02DFFFFF60
0DFFFFFFF4
5FFFFFFFF6
6FFFFFFFF8
4FFFFFFFF6
3FFFDCFFF7
0FFF44FFF8
0DFF22FFF7
0BFF10FFF6
09FF30FFE1
06FF53FFD0
03FF96FF90
02FFFEFF50
008FFFFD00
000687A700
0000243100
ENDCHAR
STARTCHAR multiply
ENCODING 215
SWIDTH 359 0
DWIDTH 7 0
BBX 7 9 0 3
BITMAP
00100200
07E18D10
7FFCFFC0
2DFFFF60
04FFFA00
2DFFFF70
5FFDFFD0
08D27E20
00100100
ENDCHAR
STARTCHAR Oslash
ENCODING 216
SWIDTH 658 0
DWIDTH 13 0
BBX 15 17 -1 -2
BITMAP
000028A961000000
0006FFFFFF500210
004FFFFFFFF43A00
00BFFFFFFFF9A100
00CFFFFFFFFC1000
00AFFFFFFFF50000
009FFFAEFFF60000
006FFD07FFF70000
004FFA1DFFF60000
002FFBC6FFF50000
001FFE43FFE10000
000CFE06FFC00000
000BFF49FF900000
009CFFEFFF400000
0841DFFFFC000000
34001C3B97000000
0000030611000000
ENDCHAR
STARTCHAR Ugrave
ENCODING 217
SWIDTH 637 0
DWIDTH 13 0
BBX 13 24 0 -2
BITMAP
00100000000000
00B80000000000
01FFA100000000
2DFFFC20000000
037BFFF2000000
00001591000000
00000000000000
379BC705764100
0BFFF909FFFC10
06FFF80AFFF400
04FFF80AFFF100
02FFFB0AFFC000
00FFFB0BFF9000
00DFFB0CFF5000
00BFF80CFF2000
009FF60EFF1000
00AFF70EFF0000
009FF91FFD0000
007FFB2FFB0000
003FFEBFF80000
001EFFFFF50000
0007E88A700000
00007026000000
00000001000000
ENDCHAR
STARTCHAR Uacute
ENCODING 218
SWIDTH 637 0
DWIDTH 13 0
BBX 14 24 0 -2
BITMAP
00000000000100
00000000009B00
000000001BFE10
00000002CFFFD2
0000002FFFB720
00000019510000
00000000000000
379BC705764100
0BFFF909FFFC10
06FFF80AFFF400
04FFF80AFFF100
02FFFB0AFFC000
00FFFB0BFF9000
00DFFB0CFF5000
00BFF80CFF2000
009FF60EFF1000
00AFF70EFF0000
009FF91FFD0000
007FFB2FFB0000
003FFEBFF80000
001EFFFFF50000
0007E88A700000
00007026000000
00000001000000
ENDCHAR
STARTCHAR Ucircumflex
ENCODING 219
SWIDTH 637 0
DWIDTH 13 0
BBX 13 25 0 -2
BITMAP
00008BBD300000
0002FFFFB00000
0008FFFFF40000
001EFD8FFB0000
006FE309FF4000
00DF4000BFB000
008500001A2000
00000000000000
379BC705764100
0BFFF909FFFC10
06FFF80AFFF400
04FFF80AFFF100
02FFFB0AFFC000
00FFFB0BFF9000
00DFFB0CFF5000
00BFF80CFF2000
009FF60EFF1000
00AFF70EFF0000
009FF91FFD0000
007FFB2FFB0000
003FFEBFF80000
001EFFFFF50000
0007E88A700000
00007026000000
00000001000000
ENDCHAR
STARTCHAR Udieresis
ENCODING 220
SWIDTH 637 0
DWIDTH 13 0
BBX 13 23 0 -2
BITMAP
02998406ADC400
05FFF90BFFF500
05FFF90BFFF500
05FFF80AFFF600
03DEF708DBC400
00000000000000
379BC705764100
0BFFF909FFFC10
06FFF80AFFF400
04FFF80AFFF100
02FFFB0AFFC000
00FFFB0BFF9000
00DFFB0CFF5000
00BFF80CFF2000
009FF60EFF1000
00AFF70EFF0000
009FF91FFD0000
007FFB2FFB0000
003FFEBFF80000
001EFFFFF50000
0007E88A700000
00007026000000
00000001000000
ENDCHAR
STARTCHAR Yacute
ENCODING 221
SWIDTH 688 0
DWIDTH 14 0
BBX 15 23 0 -1
BITMAP
0000000000010000
00000000002D5000
0000000004EF9000
000000006FFFF900
00000008FFEA5100
0000000583000000
0000000000000000
269AB9005A510000
18FFFF309FFFD710
003DFFC0DFFF8000
0004FFFAFFF70000
00005FFFFFA00000
00000DFFFF200000
000007FFFF000000
000003FFFD000000
000000BFFC000000
0000006FFB000000
0000004FFA000000
0000001FF9000000
0000000FF8000000
0000000EF7000000
0000000DF6000000
0000000862000000
ENDCHAR
STARTCHAR Thorn
ENCODING 222
SWIDTH 521 0
DWIDTH 10 0
BBX 10 22 0 -3
BITMAP
0112240000
9FFFFB0000
8FFFF70000
6FFFF50000
4FFFFBB960
1FFFFFFFF5
0FFFFFFFFA
0EFFFFFFFC
0DFFFFFFFC
0CFFFFFFFB
0AFFF88FF9
07FFF40EF7
05FFF50DF5
02FFF86EF1
00EFFFFFC0
00BFFDCD40
009FF50000
00BFF60000
008FF60000
0059B60000
0027520000
0004200000
ENDCHAR
STARTCHAR germandbls
ENCODING 223
SWIDTH 546 0
DWIDTH 11 0
BBX 11 17 0 -2
BITMAP
003678875000
06FFFFFFFC00
0EFFFFFFFF30
2FFFFFFFFF50
2FFFFFFFFF50
4FFFFFFFFF50
3FFFFAEFFE00
1FFFB08FF900
0EFFB08FF300
0BFFA8EFD000
09FFA8FF6000
07FFA5EFE000
06FFA0AFE000
04FFB0BFB000
00EFA9EF9000
00D99AFF2000
001000450000
ENDCHAR
STARTCHAR agrave
ENCODING 224
SWIDTH 479 0
DWIDTH 10 0
BBX 11 24 -1 -2
BITMAP
001000000000
02D400000000
05FF70000000
5FFFF9100000
048DFFC00000
000026700000
000000000000
049ACDDBDE60
01CFFFFFF900
001EFFFFF300
000EFFFFF100
000CFFFFF100
000DFFFFF100
000EFFFFE000
000BFFEFD000
000CFDCFE000
000EFAAFE200
000FF88FE200
001FF78FF100
001EFFFFE000
002FFEFFD000
000EF87FB000
000FF24FB000
000990123000
ENDCHAR
STARTCHAR aacute
ENCODING 225
SWIDTH 479 0
DWIDTH 10 0
BBX 12 24 0 -2
BITMAP
000000000100
000000002C60
00000003DFB0
0000005EFFFA
000006FFEA51
000004830000
000000000000
49ACDDBDE600
1CFFFFFF9000
01EFFFFF3000
00EFFFFF1000
00CFFFFF1000
00DFFFFF1000
00EFFFFE0000
00BFFEFD0000
00CFDCFE0000
00EFAAFE2000
00FF88FE2000
01FF78FF1000
01EFFFFE0000
02FFEFFD0000
00EF87FB0000
00FF24FB0000
009901230000
ENDCHAR
STARTCHAR acircumflex
ENCODING 226
SWIDTH 479 0
DWIDTH 10 0
BBX 10 25 0 -2
BITMAP
000CBBC000
006FFFF600
00DFFFFD00
04FFABFF70
0BFC01DFE1
3FD1002EF6
2A200003A1
0000000000
49ACDDBDE6
1CFFFFFF90
01EFFFFF30
00EFFFFF10
00CFFFFF10
00DFFFFF10
00EFFFFE00
00BFFEFD00
00CFDCFE00
00EFAAFE20
00FF88FE20
01FF78FF10
01EFFFFE00
02FFEFFD00
00EF87FB00
00FF24FB00
0099012300
ENDCHAR
STARTCHAR atilde
ENCODING 227
SWIDTH 479 0
DWIDTH 10 0
BBX 10 23 0 -2
BITMAP
045003B800
7FF68EFFA0
6FFFFFFFF4
09FFF9BF90
0047200300
0000000000
49ACDDBDE6
1CFFFFFF90
01EFFFFF30
00EFFFFF10
00CFFFFF10
00DFFFFF10
00EFFFFE00
00BFFEFD00
00CFDCFE00
00EFAAFE20
00FF88FE20
01FF78FF10
01EFFFFE00
02FFEFFD00
00EF87FB00
00FF24FB00
0099012300
ENDCHAR
STARTCHAR adieresis
ENCODING 228
SWIDTH 479 0
DWIDTH 10 0
BBX 11 23 0 -2
BITMAP
5A88219BDB00
9FFF40FFFF10
AFFF40FFFE10
AFFF40FFFF20
8DFE30CDBC00
000000000000
49ACDDBDE600
1CFFFFFF9000
01EFFFFF3000
00EFFFFF1000
00CFFFFF1000
00DFFFFF1000
00EFFFFE0000
00BFFEFD0000
00CFDCFE0000
00EFAAFE2000
00FF88FE2000
01FF78FF1000
01EFFFFE0000
02FFEFFD0000
00EF87FB0000
00FF24FB0000
009901230000
ENDCHAR
STARTCHAR aring
ENCODING 229
SWIDTH 479 0
DWIDTH 10 0
BBX 10 25 0 -2
BITMAP
0001663000
002EFFF500
007F65ED00
004F109C00
001FA7E400
0008DF9000
0000030000
0000000000
49ACDDBDE6
1CFFFFFF90
01EFFFFF30
00EFFFFF10
00CFFFFF10
00DFFFFF10
00EFFFFE00
00BFFEFD00
00CFDCFE00
00EFAAFE20
00FF88FE20
01FF78FF10
01EFFFFE00
02FFEFFD00
00EF87FB00
00FF24FB00
0099012300
ENDCHAR
STARTCHAR ae
ENCODING 230
SWIDTH 755 0
DWIDTH 15 0
BBX 15 17 0 -2
BITMAP
49ACDDBDECB86310
1CFFFFFFFFFFFF30
01EFFFFFFFFFF900
00CFFFFFFFFFF200
00AFFFFFFFFFD000
00BFFFFFFFFFC000
00CFFFFFEEFFA000
00AFFEFFD0165000
00AFFBFFD2210000
00CFC8FFFFF80000
00DF97FFFFF70000
00EF97FFE9A40000
00DFFFFFD1000000
00EFEEFFEEEB0000
00DFA6FFFFF90000
00EF33F969670000
008A012300020000
ENDCHAR
STARTCHAR ccedilla
ENCODING 231
SWIDTH 534 0
DWIDTH 11 0
BBX 11 23 0 -8
BITMAP
0007ADD92000
02BFFFFFD300
0DFFFFFFFD10
4FFFFFFFFF30
7FFFFFFFFF20
6FFFFFFFFF30
3FFFFDFFFF10
0FFFE18FFF00
0BFFE04FFD00
0AFFD0012300
07FFC0000000
04FFE05C7000
00FFF2BFE000
00BFFBFFB000
005FFFFE4000
0005AAC50000
000003F60000
000007E10000
00000CC64000
000008BFB000
0000000EA000
000008CF9000
000006896000
ENDCHAR
STARTCHAR egrave
ENCODING 232
SWIDTH 632 0
DWIDTH 13 0
BBX 12 24 0 -2
BITMAP
001000000000
01D500000000
04FF80000000
4EFFFA100000
048DFFD00000
000026800000
000000000000
01579AAA9752
4FFFFFFFFFFB
0AFFFFFFFFF2
02FFFFFFFFA0
00FFFFFFFF70
00DFFFFFFF50
00AFFFEFFF30
008FFF203800
005FFF422000
002FFFFFF100
000FFFFFF000
000EFFA9B000
000CFF200000
0009FFDFD400
0006FFFFF300
000363A7A200
000000002000
ENDCHAR
STARTCHAR eacute
ENCODING 233
SWIDTH 632 0
DWIDTH 13 0
BBX 13 23 0 -2
BITMAP
0000000001B700
000000002DFC00
00000004EFFFB0
0000005FFEA610
00000038400000
00000000000000
01579AAA975200
4FFFFFFFFFFB00
0AFFFFFFFFF200
02FFFFFFFFA000
00FFFFFFFF7000
00DFFFFFFF5000
00AFFFEFFF3000
008FFF20380000
005FFF42200000
002FFFFFF10000
000FFFFFF00000
000EFFA9B00000
000CFF20000000
0009FFDFD40000
0006FFFFF30000
000363A7A20000
00000000200000
ENDCHAR
STARTCHAR ecircumflex
ENCODING 234
SWIDTH 632 0
DWIDTH 13 0
BBX 12 25 0 -2
BITMAP
0000BBBD1000
0005FFFF7000
000BFFFFE100
003FFBAFF800
00AFC11CFE10
02FD2002DF70
01A300003A10
000000000000
01579AAA9752
4FFFFFFFFFFB
0AFFFFFFFFF2
02FFFFFFFFA0
00FFFFFFFF70
00DFFFFFFF50
00AFFFEFFF30
008FFF203800
005FFF422000
002FFFFFF100
000FFFFFF000
000EFFA9B000
000CFF200000
0009FFDFD400
0006FFFFF300
000363A7A200
000000002000
ENDCHAR
STARTCHAR edieresis
ENCODING 235
SWIDTH 632 0
DWIDTH 13 0
BBX 12 23 0 -2
BITMAP
04A88208BDC1
08FFF50EFFF2
08FFF50EFFF1
08FFF50EFFF3
07DFE40BDBC1
000000000000
01579AAA9752
4FFFFFFFFFFB
0AFFFFFFFFF2
02FFFFFFFFA0
00FFFFFFFF70
00DFFFFFFF50
00AFFFEFFF30
008FFF203800
005FFF422000
002FFFFFF100
000FFFFFF000
000EFFA9B000
000CFF200000
0009FFDFD400
0006FFFFF300
000363A7A200
000000002000
ENDCHAR
STARTCHAR igrave
ENCODING 236
SWIDTH 411 0
DWIDTH 8 0
BBX 10 23 -2 -1
BITMAP
0010000000
03D3000000
07FF500000
7FFFF80000
159DFFA000
0000276000
0000000000
0048BCBB84
001EFFFFF3
0002EFFFB0
00009FFF80
00009FFF60
0000AFFF30
0000AFFF00
00009FFD00
00007FFD00
00005FFF00
00002FFC00
00000FFA00
00000EF900
00000EF800
00000BD700
0000013400
ENDCHAR
STARTCHAR iacute
ENCODING 237
SWIDTH 411 0
DWIDTH 8 0
BBX 11 23 0 -1
BITMAP
000000001000
00000002D500
0000004EF900
000006FFFF80
00008FFE9510
000058300000
000000000000
48BCBB840000
1EFFFFF30000
02EFFFB00000
009FFF800000
009FFF600000
00AFFF300000
00AFFF000000
009FFD000000
007FFD000000
005FFF000000
002FFC000000
000FFA000000
000EF9000000
000EF8000000
000BD7000000
000134000000
ENDCHAR
STARTCHAR icircumflex
ENCODING 238
SWIDTH 411 0
DWIDTH 8 0
BBX 9 24 0 -1
BITMAP
007CBD5000
01EFFFC000
06FFFFF500
0DFE7FFD00
5FF408FF60
BF5000AFC0
7700000A30
0000000000
48BCBB8400
1EFFFFF300
02EFFFB000
009FFF8000
009FFF6000
00AFFF3000
00AFFF0000
009FFD0000
007FFD0000
005FFF0000
002FFC0000
000FFA0000
000EF90000
000EF80000
000BD70000
0001340000
ENDCHAR
STARTCHAR idieresis
ENCODING 239
SWIDTH 411 0
DWIDTH 8 0
BBX 10 22 -1 -1
BITMAP
6A88119BDA
BFFF22FFFE
BFFF22FFFD
BFFF22FFFF
9DFE11DDBB
0000000000
048BCBB840
01EFFFFF30
002EFFFB00
0009FFF800
0009FFF600
000AFFF300
000AFFF000
0009FFD000
0007FFD000
0005FFF000
0002FFC000
0000FFA000
0000EF9000
0000EF8000
0000BD7000
0000134000
ENDCHAR
STARTCHAR eth
ENCODING 240
SWIDTH 530 0
DWIDTH 11 0
BBX 11 18 0 -3
BITMAP
001368AB8000
04FFFFFFF800
03FFFFFFFF70
00CFFFFFFFC0
007FFFFFFFE0
004FFFFFFFE0
003FFFDDFFC0
001FFF33FF90
144FFF43FF60
3CDFFFD3FF20
000CFF02FD00
000AFF05FA00
0007FF8CF800
0006FFFFF600
0006E8EFD100
000650BB2000
000330750000
000000500000
ENDCHAR
STARTCHAR ntilde
ENCODING 241
SWIDTH 664 0
DWIDTH 13 0
BBX 13 23 0 -2
BITMAP
00072005C50000
01CFD4BFFF5000
00BFFFFFFFD000
001DFFD8DE5000
00016600120000
00000000000000
59ABCB24988880
2EFFFF52FFFF60
08FFFF90EFFD00
05FFFFF0EFF800
04FFFFF5FFF400
03FFFFFBFFF200
02FFFFFFFFF000
01FFFFFFFFD000
00EFFFFFFFB000
00BFFFFFFF8000
007FFAFFFF6000
007FF6FFFF3000
005FF3CFFE0000
003FF3AFFC0000
002FF26FF60000
000EB25FC30000
00011003710000
ENDCHAR
STARTCHAR ograve
ENCODING 242
SWIDTH 545 0
DWIDTH 11 0
BBX 12 24 -1 -2
BITMAP
001000000000
00D700000000
03FF90000000
4DFFFB100000
038CFFE10000
000015900000
000000000000
00016ABA8100
002DFFFFFD30
00CFFFFFFFC2
04FFFFFFFFF6
06FFFFFFFFF5
04FFFFFFFFF7
02FFFFAFFFF6
00FFF90DFFF6
00DFF70CFFF3
00BFF609FFF1
008FF70AFFB0
005FF90DFF70
001FFD1FFF20
000DFFEFFD00
0006BFFFF600
0000053EB100
000000023000
ENDCHAR
STARTCHAR oacute
ENCODING 243
SWIDTH 545 0
DWIDTH 11 0
BBX 13 24 0 -2
BITMAP
00000000001000
000000001B9000
00000002CFD000
0000003DFFFC10
000004FFFB6200
00000294100000
00000000000000
0016ABA8100000
02DFFFFFD30000
0CFFFFFFFC2000
4FFFFFFFFF6000
6FFFFFFFFF5000
4FFFFFFFFF7000
2FFFFAFFFF6000
0FFF90DFFF6000
0DFF70CFFF3000
0BFF609FFF1000
08FF70AFFB0000
05FF90DFF70000
01FFD1FFF20000
00DFFEFFD00000
006BFFFF600000
000053EB100000
00000023000000
ENDCHAR
STARTCHAR ocircumflex
ENCODING 244
SWIDTH 545 0
DWIDTH 11 0
BBX 11 25 0 -2
BITMAP
000ABBD20000
003FFFF90000
00AFFFFF2000
02FFC9FF9000
08FD20BFF200
1EE3001DF900
19400002A100
000000000000
0016ABA81000
02DFFFFFD300
0CFFFFFFFC20
4FFFFFFFFF60
6FFFFFFFFF50
4FFFFFFFFF70
2FFFFAFFFF60
0FFF90DFFF60
0DFF70CFFF30
0BFF609FFF10
08FF70AFFB00
05FF90DFF700
01FFD1FFF200
00DFFEFFD000
006BFFFF6000
000053EB1000
000000230000
ENDCHAR
STARTCHAR otilde
ENCODING 245
SWIDTH 545 0
DWIDTH 11 0
BBX 11 23 0 -2
BITMAP
037001A91000
5FF86DFFC100
4FFFFFFFF700
06FFFA9FB100
003730030000
000000000000
0016ABA81000
02DFFFFFD300
0CFFFFFFFC20
4FFFFFFFFF60
6FFFFFFFFF50
4FFFFFFFFF70
2FFFFAFFFF60
0FFF90DFFF60
0DFF70CFFF30
0BFF609FFF10
08FF70AFFB00
05FF90DFF700
01FFD1FFF200
00DFFEFFD000
006BFFFF6000
000053EB1000
000000230000
ENDCHAR
STARTCHAR odieresis
ENCODING 246
SWIDTH 545 0
DWIDTH 11 0
BBX 11 23 0 -2
BITMAP
3A98308ADC20
6FFF70CFFF30
7FFF70CFFF30
7FFF60CFFF40
5DEE50ADBC30
000000000000
0016ABA81000
02DFFFFFD300
0CFFFFFFFC20
4FFFFFFFFF60
6FFFFFFFFF50
4FFFFFFFFF70
2FFFFAFFFF60
0FFF90DFFF60
0DFF70CFFF30
0BFF609FFF10
08FF70AFFB00
05FF90DFF700
01FFD1FFF200
00DFFEFFD000
006BFFFF6000
000053EB1000
000000230000
ENDCHAR
STARTCHAR oslash
ENCODING 248
SWIDTH 676 0
DWIDTH 14 0
BBX 13 17 0 -2
BITMAP
0005ABA8100010
00AFFFFFD30490
08FFFFFFFC5A00
0FFFFFFFFFB000
2FFFFFFFFF4000
0EFFFFFFFF5000
0CFFFAFFFF4000
0AFFB0DFFF5000
08FF8ADFFF2000
06FFE67FFE0000
03FF909FFA0000
00FF90CFF70000
04EFD1FFF20000
399FFEFFD00000
803BFFFF700000
000053EB100000
00000023000000
ENDCHAR
STARTCHAR ugrave
ENCODING 249
SWIDTH 708 0
DWIDTH 14 0
BBX 15 23 0 -1
BITMAP
0001000000000000
001D500000000000
005FF70000000000
05FFFF9100000000
0048DFFC00000000
0000026700000000
0000000000000000
2469BB4047420000
1BFFFF508FFFD810
04FFFF50BFFFF500
02FFFF509FFFC000
00DFFF808FFF7000
00AFFF909FFF1000
007FFF909FFD0000
005FFF70AFFA0000
003FFF60DFF80000
002FFF60DFF80000
001EFF90EFF50000
000BFFB2FFF20000
0005FFEAFFF10000
0002FFFFFFB00000
00006D87CB400000
0000000010000000
ENDCHAR
STARTCHAR uacute
ENCODING 250
SWIDTH 708 0
DWIDTH 14 0
BBX 15 23 0 -1
BITMAP
0000000000010000
00000000002C6000
0000000003DFB000
000000005EFFFA00
00000006FFEA5100
0000000483000000
0000000000000000
2469BB4047420000
1BFFFF508FFFD810
04FFFF50BFFFF500
02FFFF509FFFC000
00DFFF808FFF7000
00AFFF909FFF1000
007FFF909FFD0000
005FFF70AFFA0000
003FFF60DFF80000
002FFF60DFF80000
001EFF90EFF50000
000BFFB2FFF20000
0005FFEAFFF10000
0002FFFFFFB00000
00006D87CB400000
0000000010000000
ENDCHAR
STARTCHAR ucircumflex
ENCODING 251
SWIDTH 708 0
DWIDTH 14 0
BBX 15 24 0 -1
BITMAP
00000BBBC0000000
00006FFFF6000000
0000CFFFFE100000
0004FFABFF700000
000BFC11DFE10000
002FD1002EF60000
002A200003A10000
0000000000000000
2469BB4047420000
1BFFFF508FFFD810
04FFFF50BFFFF500
02FFFF509FFFC000
00DFFF808FFF7000
00AFFF909FFF1000
007FFF909FFD0000
005FFF70AFFA0000
003FFF60DFF80000
002FFF60DFF80000
001EFF90EFF50000
000BFFB2FFF20000
0005FFEAFFF10000
0002FFFFFFB00000
00006D87CB400000
0000000010000000
ENDCHAR
STARTCHAR udieresis
ENCODING 252
SWIDTH 708 0
DWIDTH 14 0
BBX 15 22 0 -1
BITMAP
005A88219BDB1000
009FFF40FFFF1000
009FFF40FFFF1000
009FFF40FFFF2000
007DFE30CDBC1000
0000000000000000
2469BB4047420000
1BFFFF508FFFD810
04FFFF50BFFFF500
02FFFF509FFFC000
00DFFF808FFF7000
00AFFF909FFF1000
007FFF909FFD0000
005FFF70AFFA0000
003FFF60DFF80000
002FFF60DFF80000
001EFF90EFF50000
000BFFB2FFF20000
0005FFEAFFF10000
0002FFFFFFB00000
00006D87CB400000
0000000010000000
ENDCHAR
STARTCHAR yacute
ENCODING 253
SWIDTH 604 0
DWIDTH 12 0
BBX 13 24 0 -2
BITMAP
00000000001000
0000000002D500
000000004EF900
00000006FFFF90
0000008FFEA510
00000058300000
00000000000000
15999007620000
09FFF60DFFE300
006EFC3FFF5000
000AFFAFF80000
0002EFFFC00000
0000CFFF700000
00009FFF500000
00005FFF400000
00002FFF300000
00000DFF100000
00000BFF000000
00000BFE000000
00000BFF000000
00000CFD000000
00000BF9000000
000009B6000000
00000100000000
ENDCHAR
STARTCHAR thorn
ENCODING 254
SWIDTH 498 0
DWIDTH 10 0
BBX 10 22 0 -3
BITMAP
0112220000
9FFFF60000
8FFFF30000
6FFFF00000
4FFFFAA920
1FFFFFFFD0
0FFFFFFFF3
0EFFFFFFF5
0DFFFFFFF5
0CFFFFFFF4
0AFFE7CFF3
07FFF06FF2
05FFF05FF0
02FFF69FC0
00EFFFFF80
00BFFDCC20
009FF50000
00BFF60000
008FF60000
0059B50000
0027520000
0004200000
ENDCHAR
STARTCHAR ydieresis
ENCODING 255
SWIDTH 604 0
DWIDTH 12 0
BBX 12 23 0 -2
BITMAP
019986059DD6
02FFFB08FFF8
02FFFB08FFF8
02FFFB08FFF9
01DEFA06DCC6
000000000000
159990076200
09FFF60DFFE3
006EFC3FFF50
000AFFAFF800
0002EFFFC000
0000CFFF7000
00009FFF5000
00005FFF4000
00002FFF3000
00000DFF1000
00000BFF0000
00000BFE0000
00000BFF0000
00000CFD0000
00000BF90000
000009B60000
000001000000
ENDCHAR
STARTCHAR Amacron
ENCODING 256
SWIDTH 494 0
DWIDTH 10 0
BBX 10 24 0 -5
BITMAP
0244222310
08FFFFFF30
08EFEFFF20
0013221300
1456665420
2BFFFFFFB1
00DFFFFE10
00DFFFFB00
00CFFFF900
00EFFFF800
00DFFFF700
00CFEFF600
00DFAEF600
00DF6DF500
00EF4CF600
00DFCEF600
01FFFFF500
00EFFFF300
00CF5DE000
00BD1CD000
0077059000
0031017000
0000031000
0000010000
ENDCHAR
STARTCHAR amacron
ENCODING 257
SWIDTH 479 0
DWIDTH 10 0
BBX 10 22 0 -2
BITMAP
0144222320
04FFFFFF60
04EFFEFF50
0003321210
0000000000
49ACDDBDE6
1CFFFFFF90
01EFFFFF30
00EFFFFF10
00CFFFFF10
00DFFFFF10
00EFFFFE00
00BFFEFD00
00CFDCFE00
00EFAAFE20
00FF88FE20
01FF78FF10
01EFFFFE00
02FFEFFD00
00EF87FB00
00FF24FB00
0099012300
ENDCHAR
STARTCHAR Abreve
ENCODING 258
SWIDTH 494 0
DWIDTH 10 0
BBX 10 28 0 -5
BITMAP
0033100000
00DF7009A6
009FB02FF6
006FFEEFF2
001AEFFFA0
000051CA40
0000002120
0000000000
1456665420
2BFFFFFFB1
00DFFFFE10
00DFFFFB00
00CFFFF900
00EFFFF800
00DFFFF700
00CFEFF600
00DFAEF600
00DF6DF500
00EF4CF600
00DFCEF600
01FFFFF500
00EFFFF300
00CF5DE000
00BD1CD000
0077059000
0031017000
0000031000
0000010000
ENDCHAR
STARTCHAR abreve
ENCODING 259
SWIDTH 479 0
DWIDTH 10 0
BBX 10 25 0 -2
BITMAP
0033100000
00EF700AA6
009FB02FF6
007FFEEFF2
001AEFFFA0
000051CA40
0000002120
0000000000
49ACDDBDE6
1CFFFFFF90
01EFFFFF30
00EFFFFF10
00CFFFFF10
00DFFFFF10
00EFFFFE00
00BFFEFD00
00CFDCFE00
00EFAAFE20
00FF88FE20
01FF78FF10
01EFFFFE00
02FFEFFD00
00EF87FB00
00FF24FB00
0099012300
ENDCHAR
STARTCHAR Aogonek
ENCODING 260
SWIDTH 494 0
DWIDTH 10 0
BBX 10 24 0 -9
BITMAP
1456665420
2BFFFFFFB1
00DFFFFE10
00DFFFFB00
00CFFFF900
00EFFFF800
00DFFFF700
00CFEFF600
00DFAEF600
00DF6DF500
00EF4CF600
00DFCEF600
01FFFFF500
00EFFFF300
00CF5DE000
00BD1DD000
00774FB000
00318F9000
0000AF6000
0000BF8000
0000AFE621
00006FFFF7
00000AFFF6
0000002551
ENDCHAR
STARTCHAR aogonek
ENCODING 261
SWIDTH 479 0
DWIDTH 10 0
BBX 11 23 0 -8
BITMAP
49ACDDBDE600
1CFFFFFF9000
01EFFFFF3000
00EFFFFF1000
00CFFFFF1000
00DFFFFF1000
00EFFFFE0000
00BFFEFD0000
00CFDCFE0000
00EFAAFE2000
00FF88FE2000
01FF78FF1000
01EFFFFE0000
02FFEFFC0000
00EF87FB0000
00FF24FA0000
009907F80000
000009F70000
000009F70000
000008FE7520
000003FFFF50
0000006EFF40
000000002200
ENDCHAR
STARTCHAR Cacute
ENCODING 262
SWIDTH 504 0
DWIDTH 10 0
BBX 11 25 0 -3
BITMAP
000000001000
00000002D500
0000004EF900
000006FFFF90
00008FFEA510
000058300000
000000000000
0018CCC50000
02CFFFFF8000
0DFFFFFFF500
4FFFFFFFF800
6FFFFFFFF900
6FFFFFFFF900
4FFFFCFFF800
2FFF81EFF600
0EFF909CC400
0CFF80000000
09FF60000000
07FF70DC8000
04FFA3FFA000
00DFFDFF6000
00AFFFFB0000
00067AC10000
000246500000
000000100000
ENDCHAR
STARTCHAR cacute
ENCODING 263
SWIDTH 534 0
DWIDTH 11 0
BBX 12 24 0 -2
BITMAP
000000000100
000000009A00
0000001BFE10
000002DFFFC2
00003FFFB720
000019410000
000000000000
0007ADD92000
02BFFFFFD300
0DFFFFFFFD10
4FFFFFFFFF30
7FFFFFFFFF20
6FFFFFFFFF30
3FFFFDFFFF10
0FFFE18FFF00
0BFFE04FFD00
0AFFD0012300
07FFC0000000
04FFE05C7000
00FFF2BFE000
00BFFBFFB000
005FFFFE4000
0005AAC50000
000000100000
ENDCHAR
STARTCHAR Ccircumflex
ENCODING 264
SWIDTH 504 0
DWIDTH 10 0
BBX 10 26 0 -3
BITMAP
0008CBD400
001EFFFC00
007FFFFF40
00EFE7FFC0
06FE309FF5
0CF4000BFB
08600001A3
0000000000
0018CCC500
02CFFFFF80
0DFFFFFFF5
4FFFFFFFF8
6FFFFFFFF9
6FFFFFFFF9
4FFFFCFFF8
2FFF81EFF6
0EFF909CC4
0CFF800000
09FF600000
07FF70DC80
04FFA3FFA0
00DFFDFF60
00AFFFFB00
00067AC100
0002465000
0000001000
ENDCHAR
STARTCHAR ccircumflex
ENCODING 265
SWIDTH 534 0
DWIDTH 11 0
BBX 11 25 0 -2
BITMAP
0001CBCC0000
0007FFFF5000
000DFFFFD000
005FF9CFF600
00CFB01DFD00
03FC1003EF50
02A200004900
000000000000
0007ADD92000
02BFFFFFD300
0DFFFFFFFD10
4FFFFFFFFF30
7FFFFFFFFF20
6FFFFFFFFF30
3FFFFDFFFF10
0FFFE18FFF00
0BFFE04FFD00
0AFFD0012300
07FFC0000000
04FFE05C7000
00FFF2BFE000
00BFFBFFB000
005FFFFE4000
0005AAC50000
000000100000
ENDCHAR
STARTCHAR Cdotaccent
ENCODING 266
SWIDTH 504 0
DWIDTH 10 0
BBX 10 26 0 -3
BITMAP
00377AA700
004FFFFE00
002FFFFD00
001FFFFF00
000FFFFE00
000EFFFD00
0006522200
0000000000
0018CCC500
02CFFFFF80
0DFFFFFFF5
4FFFFFFFF8
6FFFFFFFF9
6FFFFFFFF9
4FFFFCFFF8
2FFF81EFF6
0EFF909CC4
0CFF800000
09FF600000
07FF70DC80
04FFA3FFA0
00DFFDFF60
00AFFFFB00
00067AC100
0002465000
0000001000
ENDCHAR
STARTCHAR cdotaccent
ENCODING 267
SWIDTH 534 0
DWIDTH 11 0
BBX 11 25 0 -2
BITMAP
001579B92000
000DFFFF5000
000BFFFF4000
000AFFFF6000
0009FFFF5000
0008FFFF4000
000363131000
000000000000
0007ADD92000
02BFFFFFD300
0DFFFFFFFD10
4FFFFFFFFF30
7FFFFFFFFF20
6FFFFFFFFF30
3FFFFDFFFF10
0FFFE18FFF00
0BFFE04FFD00
0AFFD0012300
07FFC0000000
04FFE05C7000
00FFF2BFE000
00BFFBFFB000
005FFFFE4000
0005AAC50000
000000100000
ENDCHAR
STARTCHAR Ccaron
ENCODING 268
SWIDTH 504 0
DWIDTH 10 0
BBX 10 27 0 -3
BITMAP
0020000110
1BE2000BC1
1FFB006FF8
09FF41EFE1
02FFDAFF80
00BFFFFE10
004FFFF800
000ABBC100
0000000000
0018CCC500
02CFFFFF80
0DFFFFFFF5
4FFFFFFFF8
6FFFFFFFF9
6FFFFFFFF9
4FFFFCFFF8
2FFF81EFF6
0EFF909CC4
0CFF800000
09FF600000
07FF70DC80
04FFA3FFA0
00DFFDFF60
00AFFFFB00
00067AC100
0002465000
0000001000
ENDCHAR
STARTCHAR ccaron
ENCODING 269
SWIDTH 534 0
DWIDTH 11 0
BBX 11 26 0 -2
BITMAP
001100002000
04DB0002E900
05FF700BFF30
00DFE15FFB00
007FFAEFF300
001EFFFFB000
0009FFFF3000
0002CAB90000
000000000000
0007ADD92000
02BFFFFFD300
0DFFFFFFFD10
4FFFFFFFFF30
7FFFFFFFFF20
6FFFFFFFFF30
3FFFFDFFFF10
0FFFE18FFF00
0BFFE04FFD00
0AFFD0012300
07FFC0000000
04FFE05C7000
00FFF2BFE000
00BFFBFFB000
005FFFFE4000
0005AAC50000
000000100000
ENDCHAR
STARTCHAR Dcaron
ENCODING 270
SWIDTH 522 0
DWIDTH 10 0
BBX 11 27 0 -3
BITMAP
000100001100
02CD1000CC10
02FFA007FF70
00AFF32EFE10
003FFCBFF700
000CFFFFE100
0005FFFF7000
0000BBBC0000
000000000000
012468981000
2FFFFFFFB100
0EFFFFFFFB00
08FFFFFFFF00
04FFFFFFFF10
01FFFFFFFF00
00FFFEDFFD00
00EFF61EFA00
00CFF30CF700
00BFF30CF400
009FF40EF100
007FF32FE000
004FF9AFD000
003FFFFFB000
003E8DFF4000
00280BC40000
000609500000
000105000000
ENDCHAR
STARTCHAR dcaron
ENCODING 271
SWIDTH 522 0
DWIDTH 10 0
BBX 11 27 0 -3
BITMAP
000100001100
02CD1000CC10
02FFA007FF70
00AFF32EFE10
003FFCBFF700
000CFFFFE100
0005FFFF7000
0000BBBC0000
000000000000
012468981000
2FFFFFFFB100
0EFFFFFFFB00
08FFFFFFFF00
04FFFFFFFF10
01FFFFFFFF00
00FFFEDFFD00
00EFF61EFA00
00CFF30CF700
00BFF30CF400
009FF40EF100
007FF32FE000
004FF9AFD000
003FFFFFB000
003E8DFF4000
00280BC40000
000609500000
000105000000
ENDCHAR
STARTCHAR Eth.dup2
ENCODING 272
SWIDTH 530 0
DWIDTH 11 0
BBX 11 18 0 -3
BITMAP
001368AB8000
04FFFFFFF800
03FFFFFFFF70
00CFFFFFFFC0
007FFFFFFFE0
004FFFFFFFE0
003FFFDDFFC0
001FFF33FF90
144FFF43FF60
3CDFFFD3FF20
000CFF02FD00
000AFF05FA00
0007FF8CF800
0006FFFFF600
0006E8EFD100
000650BB2000
000330750000
000000500000
ENDCHAR
STARTCHAR Emacron
ENCODING 274
SWIDTH 570 0
DWIDTH 11 0
BBX 11 21 0 -2
BITMAP
002432223000
00BFFFFFF000
00BEFEFFE000
000132213000
168AABA97520
2EFFFFFFFF50
06FFFFFFFF00
02FFFFFFFC00
02FFFFFFF700
01FFFFFFF200
00FFFBBFE000
00EFF4002000
00CFFB970000
00BFFFFC0000
009FFFFB0000
007FF3120000
005FF8871000
004FFFFF2000
00399FDD0000
00236B160000
000000010000
ENDCHAR
STARTCHAR emacron
ENCODING 275
SWIDTH 632 0
DWIDTH 13 0
BBX 12 21 0 -2
BITMAP
001442222200
003FFFFFF800
003EFFEFF600
000033212100
01579AAA9752
4FFFFFFFFFFB
0AFFFFFFFFF2
02FFFFFFFFA0
00FFFFFFFF70
00DFFFFFFF50
00AFFFEFFF30
008FFF203800
005FFF422000
002FFFFFF100
000FFFFFF000
000EFFA9B000
000CFF200000
0009FFDFD400
0006FFFFF300
000363A7A200
000000002000
ENDCHAR
STARTCHAR Ebreve
ENCODING 276
SWIDTH 570 0
DWIDTH 11 0
BBX 11 25 0 -2
BITMAP
001331000000
002FF301BA40
000DF705FF20
000AFFDEFD00
0004AFFFF600
0000062EA000
000000023000
000000000000
168AABA97520
2EFFFFFFFF50
06FFFFFFFF00
02FFFFFFFC00
02FFFFFFF700
01FFFFFFF200
00FFFBBFE000
00EFF4002000
00CFFB970000
00BFFFFC0000
009FFFFB0000
007FF3120000
005FF8871000
004FFFFF2000
00399FDD0000
00236B160000
000000010000
ENDCHAR
STARTCHAR ebreve
ENCODING 277
SWIDTH 632 0
DWIDTH 13 0
BBX 12 25 0 -2
BITMAP
000133100000
0002FF301BA3
0000DF705FF2
0000BFFDEFD0
00004AFFFF60
00000062EA00
000000002300
000000000000
01579AAA9752
4FFFFFFFFFFB
0AFFFFFFFFF2
02FFFFFFFFA0
00FFFFFFFF70
00DFFFFFFF50
00AFFFEFFF30
008FFF203800
005FFF422000
002FFFFFF100
000FFFFFF000
000EFFA9B000
000CFF200000
0009FFDFD400
0006FFFFF300
000363A7A200
000000002000
ENDCHAR
STARTCHAR Edotaccent
ENCODING 278
SWIDTH 570 0
DWIDTH 11 0
BBX 11 25 0 -2
BITMAP
00167AB91000
001FFFFF3000
000DFFFF2000
000CFFFF4000
000AFFFF3000
000AFFFF2000
000453130000
000000000000
168AABA97520
2EFFFFFFFF50
06FFFFFFFF00
02FFFFFFFC00
02FFFFFFF700
01FFFFFFF200
00FFFBBFE000
00EFF4002000
00CFFB970000
00BFFFFC0000
009FFFFB0000
007FF3120000
005FF8871000
004FFFFF2000
00399FDD0000
00236B160000
000000010000
ENDCHAR
STARTCHAR edotaccent
ENCODING 279
SWIDTH 632 0
DWIDTH 13 0
BBX 12 25 0 -2
BITMAP
000478AA5000
0008FFFFA000
0006FFFF9000
0004FFFFB000
0003FFFFB000
0002FFFFA000
000164121000
000000000000
01579AAA9752
4FFFFFFFFFFB
0AFFFFFFFFF2
02FFFFFFFFA0
00FFFFFFFF70
00DFFFFFFF50
00AFFFEFFF30
008FFF203800
005FFF422000
002FFFFFF100
000FFFFFF000
000EFFA9B000
000CFF200000
0009FFDFD400
0006FFFFF300
000363A7A200
000000002000
ENDCHAR
STARTCHAR Eogonek
ENCODING 280
SWIDTH 513 0
DWIDTH 10 0
BBX 11 22 0 -7
BITMAP
168AABA97520
2EFFFFFFFF50
06FFFFFFFF00
02FFFFFFFC00
02FFFFFFF700
01FFFFFFF200
00FFFBBFE000
00EFF4002000
00CFFB970000
00BFFFFC0000
009FFFFB0000
007FF3120000
005FF8871000
004FFFFF2000
003FCEFE0000
00260BFC0000
00000EE20000
00001FE00000
00000FF91100
00000BFFFF20
000002DFFF10
000000157600
ENDCHAR
STARTCHAR eogonek
ENCODING 281
SWIDTH 632 0
DWIDTH 13 0
BBX 12 22 0 -7
BITMAP
01579AAA9752
4FFFFFFFFFFB
0AFFFFFFFFF2
02FFFFFFFFA0
00FFFFFFFF70
00DFFFFFFF50
00AFFFEFFF30
008FFF203800
005FFF422000
002FFFFFF100
000FFFFFF000
000EFFA9B000
000CFF200000
0009FFDFD400
0006FFFFF200
000363EF7000
000000CF3000
000000FF1000
000000EF9000
000000AFFFE4
0000002DFFF2
000000016871
ENDCHAR
STARTCHAR Ecaron
ENCODING 282
SWIDTH 570 0
DWIDTH 11 0
BBX 11 26 0 -2
BITMAP
000100001100
02CD1000CC10
02FFA007FF60
00AFF32FFE10
004FFCBFF700
000CFFFFE100
0005FFFF6000
0000BBBC0000
000000000000
168AABA97520
2EFFFFFFFF50
06FFFFFFFF00
02FFFFFFFC00
02FFFFFFF700
01FFFFFFF200
00FFFBBFE000
00EFF4002000
00CFFB970000
00BFFFFC0000
009FFFFB0000
007FF3120000
005FF8871000
004FFFFF2000
00399FDD0000
00236B160000
000000010000
ENDCHAR
STARTCHAR ecaron
ENCODING 283
SWIDTH 632 0
DWIDTH 13 0
BBX 12 26 0 -2
BITMAP
000010000100
002CD1001CB1
002FFA008FF6
000BFF32FFE1
0004FFBCFF60
0000CFFFFD00
00006FFFF600
00000BBBC000
000000000000
01579AAA9752
4FFFFFFFFFFB
0AFFFFFFFFF2
02FFFFFFFFA0
00FFFFFFFF70
00DFFFFFFF50
00AFFFEFFF30
008FFF203800
005FFF422000
002FFFFFF100
000FFFFFF000
000EFFA9B000
000CFF200000
0009FFDFD400
0006FFFFF300
000363A7A200
000000002000
ENDCHAR
STARTCHAR Gcircumflex
ENCODING 284
SWIDTH 499 0
DWIDTH 10 0
BBX 10 25 0 -2
BITMAP
002CBCA000
009FFFF400
01EFFFFB00
07FF8DFF40
0DF902EFC0
5FB0004FF3
3A10000580
0000000000
0017995000
05EFFFFD30
1FFFFFFFE0
3FFFFFFFF6
4FFFFFFFF8
3FFFFFFFF7
1FFFCEFFF4
0EFF25FFF2
0CFF11DFF2
0AFF042430
08FF2CFFE1
06FF4AEFF1
04FF71BFF0
01EFECFFE0
00AFFFFF90
001A8DDA10
0006233100
ENDCHAR
STARTCHAR gcircumflex
ENCODING 285
SWIDTH 546 0
DWIDTH 11 0
BBX 11 25 0 -2
BITMAP
0009BBD20000
002FFFFA0000
009FFFFF2000
01FFC8FFA000
07FE20AFF300
0EE3001CFA00
19400001A200
000000000000
003898850000
03EFFFFFD200
2FFFFFFFFD00
4FFFFFFFFF50
6FFFFFFFFF80
4FFFFFFFFF80
2FFFEDFFFF60
0EFFA1CFFF20
0BFF807FFF00
09FF71236700
04FF93FC9600
01FFD2FFFD00
00EFF27EFB00
00BFF97FFA00
007FFFFFF900
001CFFFEF500
000145623000
ENDCHAR
STARTCHAR Gbreve
ENCODING 286
SWIDTH 499 0
DWIDTH 10 0
BBX 10 25 0 -2
BITMAP
0233000000
06FF004BA1
02FF309FE0
00EFFCFFA0
007BFFFF30
000165C900
0000001300
0000000000
0017995000
05EFFFFD30
1FFFFFFFE0
3FFFFFFFF6
4FFFFFFFF8
3FFFFFFFF7
1FFFCEFFF4
0EFF25FFF2
0CFF11DFF2
0AFF042430
08FF2CFFE1
06FF4AEFF1
04FF71BFF0
01EFECFFE0
00AFFFFF90
001A8DDA10
0006233100
ENDCHAR
STARTCHAR gbreve
ENCODING 287
SWIDTH 546 0
DWIDTH 11 0
BBX 11 25 0 -2
BITMAP
003310000000
00EF600AA600
00AFA02FF500
007FFDEFF200
002AEFFF9000
000051DA3000
000000221000
000000000000
003898850000
03EFFFFFD200
2FFFFFFFFD00
4FFFFFFFFF50
6FFFFFFFFF80
4FFFFFFFFF80
2FFFEDFFFF60
0EFFA1CFFF20
0BFF807FFF00
09FF71236700
04FF93FC9600
01FFD2FFFD00
00EFF27EFB00
00BFF97FFA00
007FFFFFF900
001CFFFEF500
000145623000
ENDCHAR
STARTCHAR Gdotaccent
ENCODING 288
SWIDTH 499 0
DWIDTH 10 0
BBX 10 25 0 -2
BITMAP
01579B9300
00CFFFF600
009FFFF500
008FFFF800
007FFFF700
006FFFF600
0026313100
0000000000
0017995000
05EFFFFD30
1FFFFFFFE0
3FFFFFFFF6
4FFFFFFFF8
3FFFFFFFF7
1FFFCEFFF4
0EFF25FFF2
0CFF11DFF2
0AFF042430
08FF2CFFE1
06FF4AEFF1
04FF71BFF0
01EFECFFE0
00AFFFFF90
001A8DDA10
0006233100
ENDCHAR
STARTCHAR gdotaccent
ENCODING 289
SWIDTH 546 0
DWIDTH 11 0
BBX 11 25 0 -2
BITMAP
00378AA70000
005FFFFD0000
003FFFFC0000
002FFFFE0000
001FFFFD0000
000FFFFC0000
000652220000
000000000000
003898850000
03EFFFFFD200
2FFFFFFFFD00
4FFFFFFFFF50
6FFFFFFFFF80
4FFFFFFFFF80
2FFFEDFFFF60
0EFFA1CFFF20
0BFF807FFF00
09FF71236700
04FF93FC9600
01FFD2FFFD00
00EFF27EFB00
00BFF97FFA00
007FFFFFF900
001CFFFEF500
000145623000
ENDCHAR
STARTCHAR Gcommaaccent
ENCODING 290
SWIDTH 499 0
DWIDTH 10 0
BBX 10 27 0 -12
BITMAP
0017995000
05EFFFFD30
1FFFFFFFE0
3FFFFFFFF6
4FFFFFFFF8
3FFFFFFFF7
1FFFCEFFF4
0EFF25FFF2
0CFF11DFF2
0AFF042430
08FF2CFFE1
06FF4AEFF1
04FF71BFF0
01EFECFFE0
00AFFFFF90
001A8DDA10
0006233100
0000000000
0007DB9A00
000AFFFF00
000BFFFF10
000BFFFF10
000BFFFF10
000103FE00
000003FC00
000006FA00
000006C600
ENDCHAR
STARTCHAR Hcircumflex
ENCODING 292
SWIDTH 726 0
DWIDTH 15 0
BBX 14 27 0 -4
BITMAP
00001CBCC00000
00007FFFF50000
0000DFFFFD0000
0005FF9CFF6000
000CFB01DFD000
003FC1003EF500
002A2000049000
00000000000000
00047960A99762
3DFFFF20CFFFF9
06FFFF106FFFF1
03FFFF00AFFFA0
01FFFF00CFFF40
00CFFF00CFFF10
00AFFE00CFFD00
007FFE00CFF800
004FFEBBFFF600
002FFFFFFFF200
000FFFCCFFF100
000EFF04FFE000
000CFF15FFA000
000BFF15FF9000
000BFF17FF7000
00094303DC5000
00000000221000
00000003000000
00000005000000
ENDCHAR
STARTCHAR hcircumflex
ENCODING 293
SWIDTH 730 0
DWIDTH 15 0
BBX 15 25 0 -2
BITMAP
00000BBBC1000000
00005FFFF7000000
0000CFFFFE100000
0004FFABFF700000
000AFC11DFE10000
002FD1002EF70000
002A200003A10000
0000000000000000
1236AC80ACCAA610
2CFFFF209FFFF900
04FFFF204FFFF200
02FFFF209FFFB000
00FFFF10AFFF5000
00CFFF109FFF3000
009FFF009FFE1000
006FFF00AFFA0000
003FFFDDFFF70000
001FFFFFFFF40000
000FFFA9FFF30000
000EFF23FFE10000
000DFF33FFD00000
000BFF34FFB00000
0009FF25FF900000
00072101C9700000
0000000001100000
ENDCHAR
STARTCHAR hbar
ENCODING 295
SWIDTH 704 0
DWIDTH 14 0
BBX 14 17 0 -2
BITMAP
1237AC52DCBA83
2CFFFF02FFFFF2
04FFFD11FFFF90
02FFFFFFFFFF30
00FFFFFFFFFD00
00CFFFFFFFFA00
009FFD88FFF700
006FFB00FFF200
003FFEDEFFE000
001FFFFFFFB000
000FFFA9FFD000
000EFF23FFE000
000DFF33FFD000
000BFF34FFB000
0009FF25FF9000
00072101C97000
00000000011000
ENDCHAR
STARTCHAR Itilde
ENCODING 296
SWIDTH 401 0
DWIDTH 8 0
BBX 10 22 -1 -1
BITMAP
063004C600
AFE4AFFF70
AFFFFFFFE1
1CFFE8CF60
0166100300
0000000000
04CCBCBB40
03EFFFFE10
003FFFF800
000BFFF700
000AFFF700
000CFFF500
000CFFF300
000BFFE000
000AFFF000
0008FFF000
0006FFB000
0004FFC000
0002FFC000
0000FFA000
0000BBB000
0000564000
ENDCHAR
STARTCHAR itilde
ENCODING 297
SWIDTH 411 0
DWIDTH 8 0
BBX 10 22 -1 -1
BITMAP
054003B700
9FE59EFF80
8FFFFFFFF3
0BFFE9BF80
0057100300
0000000000
048BCBB840
01EFFFFF30
002EFFFB00
0009FFF800
0009FFF600
000AFFF300
000AFFF000
0009FFD000
0007FFD000
0005FFF000
0002FFC000
0000FFA000
0000EF9000
0000EF8000
0000BD7000
0000134000
ENDCHAR
STARTCHAR Imacron
ENCODING 298
SWIDTH 401 0
DWIDTH 8 0
BBX 8 20 0 -1
BITMAP
24422231
8FFFFFF3
8EFEFFF2
01322130
4CCBCBB4
3EFFFFE1
03FFFF80
00BFFF70
00AFFF70
00CFFF50
00CFFF30
00BFFE00
00AFFF00
008FFF00
006FFB00
004FFC00
002FFC00
000FFA00
000BBB00
00056400
ENDCHAR
STARTCHAR imacron
ENCODING 299
SWIDTH 411 0
DWIDTH 8 0
BBX 8 20 0 -1
BITMAP
14422231
6FFFFFF4
6EFFFFF3
00322131
48BCBB84
1EFFFFF3
02EFFFB0
009FFF80
009FFF60
00AFFF30
00AFFF00
009FFD00
007FFD00
005FFF00
002FFC00
000FFA00
000EF900
000EF800
000BD700
00013400
ENDCHAR
STARTCHAR Ibreve
ENCODING 300
SWIDTH 401 0
DWIDTH 8 0
BBX 9 24 0 -1
BITMAP
1330000000
5FF103BA20
1FF508FE10
0DFFCFFB00
06AFFFF400
00064D9000
0000023000
0000000000
4CCBCBB400
3EFFFFE100
03FFFF8000
00BFFF7000
00AFFF7000
00CFFF5000
00CFFF3000
00BFFE0000
00AFFF0000
008FFF0000
006FFB0000
004FFC0000
002FFC0000
000FFA0000
000BBB0000
0005640000
ENDCHAR
STARTCHAR ibreve
ENCODING 301
SWIDTH 411 0
DWIDTH 8 0
BBX 9 24 0 -1
BITMAP
1330000000
6FF003BA20
1FF409FE00
0EFFCFFA00
06BFFFF300
00065D9000
0000013000
0000000000
48BCBB8400
1EFFFFF300
02EFFFB000
009FFF8000
009FFF6000
00AFFF3000
00AFFF0000
009FFD0000
007FFD0000
005FFF0000
002FFC0000
000FFA0000
000EF90000
000EF80000
000BD70000
0001340000
ENDCHAR
STARTCHAR Iogonek
ENCODING 302
SWIDTH 401 0
DWIDTH 8 0
BBX 8 23 0 -8
BITMAP
4CCBCBB4
3EFFFFE1
03FFFF80
00BFFF70
00AFFF70
00CFFF50
00CFFF30
00BFFE00
00AFFF00
008FFF00
006FFB00
004FFC00
002FFC00
000FFA00
000EFB00
002FE500
005FA000
008F6000
00AF5000
00AFA000
009FFDC5
002EFFF6
00028BB3
ENDCHAR
STARTCHAR iogonek
ENCODING 303
SWIDTH 412 0
DWIDTH 8 0
BBX 8 23 0 -8
BITMAP
48BCBB84
1EFFFFF2
03EFFFC0
009FFF80
009FFF60
00AFFF30
00AFFF00
009FFD00
007FFD00
005FFF00
002FFC00
000FFA00
000EF900
000EF800
000EF700
002FE500
005FB000
008F7000
00AF7000
009FE521
005FFFF8
0009FFF7
00002562
ENDCHAR
STARTCHAR Idotaccent
ENCODING 304
SWIDTH 401 0
DWIDTH 8 0
BBX 8 24 0 -1
BITMAP
1579B930
0CFFFF60
0AFFFF50
09FFFF70
08FFFF60
07FFFF50
03631310
00000000
4CCBCBB4
3EFFFFE1
03FFFF80
00BFFF70
00AFFF70
00CFFF50
00CFFF30
00BFFE00
00AFFF00
008FFF00
006FFB00
004FFC00
002FFC00
000FFA00
000BBB00
00056400
ENDCHAR
STARTCHAR dotlessi
ENCODING 305
SWIDTH 411 0
DWIDTH 8 0
BBX 8 16 0 -1
BITMAP
48BCBB84
1EFFFFF3
02EFFFB0
009FFF80
009FFF60
00AFFF30
00AFFF00
009FFD00
007FFD00
005FFF00
002FFC00
000FFA00
000EF900
000EF800
000BD700
00013400
ENDCHAR
STARTCHAR IJ
ENCODING 306
SWIDTH 908 0
DWIDTH 18 0
BBX 18 16 0 -1
BITMAP
4CCBCBB70000899862
3EFFFFF40000AFFFE2
03FFFFC000004FFFB0
00BFFFC000001FFF70
00AFFFB000002FFF10
00CFFF9000004FFF00
00CFFF7000005FFE00
00BFFF4000005FFC00
009FFF5000004FF900
008FFF4000014FF700
006FFF102AC45FF500
004FFF205FF45FF300
002FFF102FF7AFF100
000EFF001FFFFFC000
000BAF0006ECED7000
000537100004722000
ENDCHAR
STARTCHAR ij
ENCODING 307
SWIDTH 901 0
DWIDTH 18 0
BBX 18 16 0 -1
BITMAP
48ACAC850007BB9620
1EFFFFF60004FFFFD2
03EFFFE10000EFFFC0
009FFFC00000BFFF80
009FFFA000008FFF30
00AFFF7000008FFF30
00AFFF5000008FFF20
009FFF4000008FFF20
007FFF3000005FFF10
005FFF4000014FFD00
002FFF203AC44FFC00
000EFE003FF74FFB00
000DFE000EFC7FF800
000DFD000BFFFFF500
000BCC0003DFFFF000
000117000002476000
ENDCHAR
STARTCHAR Jcircumflex
ENCODING 308
SWIDTH 455 0
DWIDTH 9 0
BBX 11 24 -1 -1
BITMAP
00006CBD6000
0000DFFFE100
0005FFFFF700
000BFF7FFE10
003FF506FF70
00AF70008FE0
006800000950
000000000000
000089986200
0000AFFFE200
00004FFFB000
00001FFF8000
00001FFF2000
00003FFF0000
00005FFF0000
00005FFC0000
00004FF90000
00014FF70000
2AC45FF50000
5FF45FF40000
2FF79FF10000
1FFFFFC00000
06ECED700000
000472200000
ENDCHAR
STARTCHAR jcircumflex
ENCODING 309
SWIDTH 458 0
DWIDTH 9 0
BBX 11 24 -1 -1
BITMAP
00005CBC6000
0000DFFFE100
0004FFFFF700
000BFF7FFE10
003FF506FF70
009F70008FE0
006800000950
000000000000
0005BBA63000
0002FFFFF400
0000BFFFF000
00008FFFB000
00004FFF6000
00004FFF7000
00004FFF6000
00004FFF5000
00002FFF4000
00011FFF1000
3AB71FFF0000
4FFA1FFE0000
0EFE5FFB0000
0AFFFFF80000
02CEFFF30000
000138520000
ENDCHAR
STARTCHAR Kcommaaccent
ENCODING 310
SWIDTH 580 0
DWIDTH 12 0
BBX 11 26 0 -11
BITMAP
49BA65198520
2CFFF72FFF90
05FFF85FF800
00DFF99F9000
008FFADF5000
005FFFFF2000
004FFFFF0000
004FFFFF2000
000FFFFF2000
000DFFFF3000
000BFFFF4000
000AFEFF6000
0009F89FA000
0007F74FD000
0006F91FF000
000235075000
000000000000
0000ACAA7000
0000EFFFB000
0000EFFFC000
0000FFFFC000
0000FFFFC000
0000106FB000
0000007F9000
0000009F6000
0000009C3000
ENDCHAR
STARTCHAR kcommaaccent
ENCODING 311
SWIDTH 636 0
DWIDTH 13 0
BBX 13 26 0 -11
BITMAP
03688834ABA710
4EFFFF19FFE500
04FFFF0DFF4000
00EFFF2FF50000
007FFF5FF20000
001FFF8FF00000
000FFFAF800000
000EFFEF300000
000DFFFE000000
000AFFFF100000
0006FFFF700000
0005FFDFD00000
0002FF3EF30000
0002FF09F80000
0000FF15FD0000
00005422751000
00000000000000
00003CC9A30000
00005FFFF60000
00005FFFF70000
00006FFFF60000
00006FFFF60000
0000011BF50000
0000000DF30000
0000001FF00000
0000001CA00000
ENDCHAR
STARTCHAR kgreenlandic
ENCODING 312
SWIDTH 636 0
DWIDTH 13 0
BBX 13 16 0 -1
BITMAP
03688834ABA710
4EFFFF19FFE500
04FFFF0DFF4000
00EFFF2FF50000
007FFF5FF20000
001FFF8FF00000
000FFFAF800000
000EFFEF300000
000DFFFE000000
000AFFFF100000
0006FFFF700000
0005FFDFD00000
0002FF3EF30000
0002FF09F80000
0000FF15FD0000
00005422751000
ENDCHAR
STARTCHAR Lacute
ENCODING 313
SWIDTH 416 0
DWIDTH 8 0
BBX 11 24 0 -2
BITMAP
000000001000
00000002D500
0000004EF900
000006FFFF90
00008FFEA510
000058300000
000000000000
6BBBA9900000
0CFFFE200000
0AFFF7000000
07FFF7000000
05FFF7000000
05FFF5000000
04FFF4000000
00FFF6000000
00EFF6000000
00EFF6000000
00AFF6000000
00AFF7000000
008FFEB89000
006FFFFFB000
002FFDFF8000
0006569D5000
000101040000
ENDCHAR
STARTCHAR lacute
ENCODING 314
SWIDTH 438 0
DWIDTH 9 0
BBX 12 24 0 -2
BITMAP
000000000100
00000001A900
0000001CFD10
000003DFFFC1
00004FFFB620
000029410000
000000000000
159BBBDB1000
2BFFFFA00000
04FFFF300000
02FFFF200000
00FFFF100000
00DFFE000000
00CFFF000000
007FFE000000
003FFE000000
003FFD000000
002FFC000000
000FFD000000
000EFFDAB300
000CFFFFE000
000AFDCFB000
0008323D7000
000200020000
ENDCHAR
STARTCHAR Lcommaaccent
ENCODING 315
SWIDTH 416 0
DWIDTH 8 0
BBX 9 27 0 -12
BITMAP
6BBBA99000
0CFFFE2000
0AFFF70000
07FFF70000
05FFF70000
05FFF50000
04FFF40000
00FFF60000
00EFF60000
00EFF60000
00AFF60000
00AFF70000
008FFEB890
006FFFFFB0
002FFDFF80
0006569D50
0001010400
0000000000
006CB9A000
009FFFF100
00AFFFF200
00BFFFF100
00BFFFF100
00102FF000
00002FD000
00005FB000
00005C7000
ENDCHAR
STARTCHAR lcommaaccent
ENCODING 316
SWIDTH 438 0
DWIDTH 9 0
BBX 10 27 0 -12
BITMAP
159BBBDB10
2BFFFFA000
04FFFF3000
02FFFF2000
00FFFF1000
00DFFE0000
00CFFF0000
007FFE0000
003FFE0000
003FFD0000
002FFC0000
000FFD0000
000EFFDAB3
000CFFFFE0
000AFDCFB0
0008323D70
0002000200
0000000000
003CB9A300
005FFFF500
005FFFF600
006FFFF600
006FFFF600
00011BF500
00000DF200
00001FF000
00001CA000
ENDCHAR
STARTCHAR Lcaron
ENCODING 317
SWIDTH 714 0
DWIDTH 14 0
BBX 14 17 0 -2
BITMAP
6BBBA9906DB9A4
0CFFFE209FFFF7
09FFF800AFFFF8
07FFF700AFFFF8
05FFF700BFFFF8
05FFF600AFFFF7
04FFF400101AF6
00EFF600000BF4
00EFF600000EF2
00DFF600000DC0
00AFF600000000
00AFF700000000
008FFEB8900000
005FFFFFB00000
002FFDFF800000
0006569D500000
00010104000000
ENDCHAR
STARTCHAR lcaron
ENCODING 318
SWIDTH 782 0
DWIDTH 16 0
BBX 15 17 0 -2
BITMAP
159BBBDB12CCAA80
2BFFFFA003FFFFC0
04FFFF3004FFFFD0
02FFFF2004FFFFD0
00FFFF1005FFFFD0
00DFFE0005FFFFD0
00CFFF0000105FC0
007FFE0000006F90
003FFE0000009F70
003FFD0000008D40
002FFC0000000000
000FFD0000000000
000EFFDAB3000000
000CFFFFE0000000
000AFDCFB0000000
0008323D70000000
0002000200000000
ENDCHAR
STARTCHAR Ldotaccent
ENCODING 319
SWIDTH 567 0
DWIDTH 11 0
BBX 13 17 0 -2
BITMAP
6BBBA990000000
0CFFFE20000000
0AFFF700000000
07FFF7289CCB20
05FFF70EFFFF30
05FFF50DFFFF20
04FFF40BFFFF40
00FFF60AFFFF30
00EFF60AFFEF30
00EFF603310100
00AFF600000000
00AFF700000000
008FFEB8900000
006FFFFFB00000
002FFDFF800000
0006569D500000
00010104000000
ENDCHAR
STARTCHAR ldot
ENCODING 320
SWIDTH 660 0
DWIDTH 13 0
BBX 14 17 0 -2
BITMAP
159BBBDB100000
2BFFFFA0000000
04FFFF30000000
02FFFF20000000
00FFFF10478AA6
00DFFE008FFFFA
00CFFF006FFFFA
007FFE004FFFFC
003FFE003FFFFB
003FFD002FFFFA
002FFC00164121
000FFD00000000
000EFFDAB30000
000CFFFFE00000
000AFDCFB00000
0008323D700000
00020002000000
ENDCHAR
STARTCHAR Lslash
ENCODING 321
SWIDTH 428 0
DWIDTH 9 0
BBX 10 17 0 -2
BITMAP
3ABBA99000
08FFFE1000
05FFF70000
02FFF70000
00FFF72980
00FFFDFFA0
03FFFFFFE1
9FFFFFFFE4
7FFFFFB500
1FFFF70000
068FF60000
006FF70000
004FFEB8A0
002FFFFFA0
000DFDFF70
0005569D40
0001010300
ENDCHAR
STARTCHAR lslash
ENCODING 322
SWIDTH 457 0
DWIDTH 9 0
BBX 11 17 0 -2
BITMAP
148BBBCC3000
19FFFFD00000
01FFFF500000
00EFFF502200
00CFFF69F500
00AFFFFFF800
01CFFFFFFD00
5EFFFFFFD810
4FFFFFD60000
0DFFFF100000
057EFF000000
000CFF100000
000BFFEAA500
0009FFFFF200
0007FFBFD000
0006522BA000
000110020000
ENDCHAR
STARTCHAR Nacute
ENCODING 323
SWIDTH 610 0
DWIDTH 12 0
BBX 13 26 0 -4
BITMAP
00000000001000
0000000001C700
000000003DFB00
00000005EFFFA0
0000006FFEA610
00000048300000
00000000000000
0668873B863100
4FFFFA0EFFF400
05FFFE1CFF7000
03FFFF5BFF4000
02FFFFACFF2000
01FFFFFDFF1000
00EFFFFFFE0000
00DFFFFFFB0000
00BFFFFFF90000
008FFFFFF80000
005FFBFFF70000
003FF7FFF60000
001FF3FFF50000
000FF49FF40000
000EF56FF20000
000DC62FB10000
00071508400000
00060403000000
00000100000000
ENDCHAR
STARTCHAR nacute
ENCODING 324
SWIDTH 664 0
DWIDTH 13 0
BBX 14 24 0 -2
BITMAP
00000000000100
00000000005E20
0000000007FF50
000000019FFFF5
0000000CFFD840
00000007620000
00000000000000
59ABCB24988880
2EFFFF52FFFF60
08FFFF90EFFD00
05FFFFF0EFF800
04FFFFF5FFF400
03FFFFFBFFF200
02FFFFFFFFF000
01FFFFFFFFD000
00EFFFFFFFB000
00BFFFFFFF8000
007FFAFFFF6000
007FF6FFFF3000
005FF3CFFE0000
003FF3AFFC0000
002FF26FF60000
000EB25FC30000
00011003710000
ENDCHAR
STARTCHAR Ncommaaccent
ENCODING 325
SWIDTH 610 0
DWIDTH 12 0
BBX 12 28 0 -13
BITMAP
0668873B8631
4FFFFA0EFFF4
05FFFE1CFF70
03FFFF5BFF40
02FFFFACFF20
01FFFFFDFF10
00EFFFFFFE00
00DFFFFFFB00
00BFFFFFF900
008FFFFFF800
005FFBFFF700
003FF7FFF600
001FF3FFF500
000FF49FF400
000EF56FF200
000DC62FB100
000715084000
000604030000
000001000000
00003CB9A300
00005FFFF500
00006FFFF600
00006FFFF600
00006FFFF600
0000011CF400
0000000DF200
0000001FF000
0000001CA000
ENDCHAR
STARTCHAR ncommaaccent
ENCODING 326
SWIDTH 664 0
DWIDTH 13 0
BBX 13 27 0 -12
BITMAP
59ABCB24988880
2EFFFF52FFFF60
08FFFF90EFFD00
05FFFFF0EFF800
04FFFFF5FFF400
03FFFFFBFFF200
02FFFFFFFFF000
01FFFFFFFFD000
00EFFFFFFFB000
00BFFFFFFF8000
007FFAFFFF6000
007FF6FFFF3000
005FF3CFFE0000
003FF3AFFC0000
002FF26FF60000
000EB25FC30000
00011003710000
00000000000000
000008CAA80000
00000CFFFD0000
00000DFFFE0000
00000DFFFE0000
00000DFFFE0000
00000105FC0000
00000005FA0000
00000008F80000
00000007C40000
ENDCHAR
STARTCHAR Ncaron
ENCODING 327
SWIDTH 610 0
DWIDTH 12 0
BBX 12 28 0 -4
BITMAP
000200000100
019F40009E30
00DFD004FFA0
007FF70DFF30
001EFE9FFB00
0008FFFFF300
0002FFFFA000
00008BAD3000
000000000000
0668873B8631
4FFFFA0EFFF4
05FFFE1CFF70
03FFFF5BFF40
02FFFFACFF20
01FFFFFDFF10
00EFFFFFFE00
00DFFFFFFB00
00BFFFFFF900
008FFFFFF800
005FFBFFF700
003FF7FFF600
001FF3FFF500
000FF49FF400
000EF56FF200
000DC62FB100
000715084000
000604030000
000001000000
ENDCHAR
STARTCHAR ncaron
ENCODING 328
SWIDTH 664 0
DWIDTH 13 0
BBX 13 26 0 -2
BITMAP
00002000011000
001BE2000BC100
001FFB007FF700
0009FF42EFE100
0003FFCBFF8000
0000BFFFFE1000
00004FFFF70000
00000ABBC10000
00000000000000
59ABCB24988880
2EFFFF52FFFF60
08FFFF90EFFD00
05FFFFF0EFF800
04FFFFF5FFF400
03FFFFFBFFF200
02FFFFFFFFF000
01FFFFFFFFD000
00EFFFFFFFB000
00BFFFFFFF8000
007FFAFFFF6000
007FF6FFFF3000
005FF3CFFE0000
003FF3AFFC0000
002FF26FF60000
000EB25FC30000
00011003710000
ENDCHAR
STARTCHAR Omacron
ENCODING 332
SWIDTH 504 0
DWIDTH 10 0
BBX 10 21 0 -2
BITMAP
0244122310
08FFFFFF20
08EFEFFF10
0013221300
0017A97200
02DFFFFF60
0DFFFFFFF4
5FFFFFFFF6
6FFFFFFFF8
4FFFFFFFF6
3FFFDCFFF7
0FFF44FFF8
0DFF22FFF7
0BFF10FFF6
09FF30FFE1
06FF53FFD0
03FF96FF90
02FFFEFF50
008FFFFD00
000687A700
0000243100
ENDCHAR
STARTCHAR omacron
ENCODING 333
SWIDTH 545 0
DWIDTH 11 0
BBX 11 21 0 -2
BITMAP
004422222000
02FFFFFF9000
02EFFEFF8000
000232121000
0016ABA81000
02DFFFFFD300
0CFFFFFFFC20
4FFFFFFFFF60
6FFFFFFFFF50
4FFFFFFFFF70
2FFFFAFFFF60
0FFF90DFFF60
0DFF70CFFF30
0BFF609FFF10
08FF70AFFB00
05FF90DFF700
01FFD1FFF200
00DFFEFFD000
006BFFFF6000
000053EB1000
000000230000
ENDCHAR
STARTCHAR Obreve
ENCODING 334
SWIDTH 504 0
DWIDTH 10 0
BBX 10 25 0 -2
BITMAP
0133000000
04FF202BA3
00EF607FF1
00CFFDFFC0
005AFFFF40
000063DA00
0000002300
0000000000
0017A97200
02DFFFFF60
0DFFFFFFF4
5FFFFFFFF6
6FFFFFFFF8
4FFFFFFFF6
3FFFDCFFF7
0FFF44FFF8
0DFF22FFF7
0BFF10FFF6
09FF30FFE1
06FF53FFD0
03FF96FF90
02FFFEFF50
008FFFFD00
000687A700
0000243100
ENDCHAR
STARTCHAR obreve
ENCODING 335
SWIDTH 545 0
DWIDTH 11 0
BBX 11 25 0 -2
BITMAP
013310000000
01FF500BA500
00BF904FF400
009FFDEFE100
003AFFFF8000
000061EA2000
000000221000
000000000000
0016ABA81000
02DFFFFFD300
0CFFFFFFFC20
4FFFFFFFFF60
6FFFFFFFFF50
4FFFFFFFFF70
2FFFFAFFFF60
0FFF90DFFF60
0DFF70CFFF30
0BFF609FFF10
08FF70AFFB00
05FF90DFF700
01FFD1FFF200
00DFFEFFD000
006BFFFF6000
000053EB1000
000000230000
ENDCHAR
STARTCHAR Ohungarumlaut
ENCODING 336
SWIDTH 504 0
DWIDTH 10 0
BBX 11 25 0 -2
BITMAP
003700082000
009FB02FC920
01EFF38FFC10
06FF50DFD100
0DF704FD2000
5F900AE20000
390007400000
000000000000
0017A9720000
02DFFFFF6000
0DFFFFFFF400
5FFFFFFFF600
6FFFFFFFF800
4FFFFFFFF600
3FFFDCFFF700
0FFF44FFF800
0DFF22FFF700
0BFF10FFF600
09FF30FFE100
06FF53FFD000
03FF96FF9000
02FFFEFF5000
008FFFFD0000
000687A70000
000024310000
ENDCHAR
STARTCHAR ohungarumlaut
ENCODING 337
SWIDTH 545 0
DWIDTH 11 0
BBX 11 25 0 -2
BITMAP
000820045000
002FE40BEA60
009FF91FFF40
01EFB07FF500
06FD10DF6000
0DD204F70000
093002800000
000000000000
0016ABA81000
02DFFFFFD300
0CFFFFFFFC20
4FFFFFFFFF60
6FFFFFFFFF50
4FFFFFFFFF70
2FFFFAFFFF60
0FFF90DFFF60
0DFF70CFFF30
0BFF609FFF10
08FF70AFFB00
05FF90DFF700
01FFD1FFF200
00DFFEFFD000
006BFFFF6000
000053EB1000
000000230000
ENDCHAR
STARTCHAR OE
ENCODING 338
SWIDTH 789 0
DWIDTH 16 0
BBX 15 18 0 -3
BITMAP
0017A989ABAA8630
02DFFFFFFFFFFFC0
0DFFFFFFFFFFFF50
5FFFFFFFFFFFFE00
6FFFFFFFFFFFF900
4FFFFFFFFFFFF600
3FFFDCFFFDAEF500
1FFF44FFFA002100
0DFF12FFFD992000
0BFF10FFFFFF4000
0AFF30FFFFFF2000
07FF43FFF9120000
03FF96FFFB873000
03FFFEFFFFFF7000
008FFFFE5FED5000
000697B80C643000
0002665409050000
0000232007050000
ENDCHAR
STARTCHAR oe
ENCODING 339
SWIDTH 778 0
DWIDTH 16 0
BBX 15 17 0 -2
BITMAP
0017AAA789986410
02DFFFFFFFFFFF90
0CFFFFFFFFFFFE10
5FFFFFFFFFFFF900
6FFFFFFFFFFFF500
4FFFFFFFFFFFF300
1FFFEBFFFFFFF100
0DFF71FFFC248000
0AFF40EFFB110000
07FF40CFFFFE0000
05FF40DFFFFD0000
02FF61FFFBA90000
00FFA4FFF4000000
00DFFEFFFDEC3000
006BFFFFFFFF1000
000156CA2B8A0000
0000001200020000
ENDCHAR
STARTCHAR Racute
ENCODING 340
SWIDTH 599 0
DWIDTH 12 0
BBX 13 24 0 -2
BITMAP
00000000001000
0000000003E300
000000005FF700
00000007FFFF70
000000AFFD9410
00000067200000
00000000000000
0267BCB9810000
4EFFFFFFFE6000
06FFFFFFFFF500
00CFFFFFFFF800
006FFFFFFFF800
006FFFFFFFF700
005FFF58FFF600
004FFF20FFF400
001FFF34FFF100
000CFFFFFFB000
0009FFFFFE5000
0007FF9EFD0000
0006FF3AFF3000
0004FF59FF3000
0003FF67FF4000
00008742AD7000
00000100001000
ENDCHAR
STARTCHAR racute
ENCODING 341
SWIDTH 616 0
DWIDTH 12 0
BBX 13 24 0 -2
BITMAP
00000000001000
0000000001C700
000000003DFB00
00000005EFFFA0
0000006FFEA610
00000048300000
00000000000000
1257ABA9720000
4FFFFFFFFFB200
06FFFFFFFFFD00
00BFFFFFFFFE00
007FFFFFFFFC00
006FFFFFFFF900
004FFF98FFF600
002FFF40DFF300
002FFF51FFF100
001EFFFEFFE000
000CFFFFFF7000
000CFFCFFA0000
000BFF2DFB0000
000AFF4CFB0000
000AFF3BFB0000
0009B718EC0000
00010000160000
ENDCHAR
STARTCHAR Rcommaaccent
ENCODING 342
SWIDTH 599 0
DWIDTH 12 0
BBX 12 27 0 -12
BITMAP
0267BCB98100
4EFFFFFFFE60
06FFFFFFFFF5
00CFFFFFFFF8
006FFFFFFFF8
006FFFFFFFF7
005FFF58FFF6
004FFF20FFF4
001FFF34FFF1
000CFFFFFFB0
0009FFFFFE50
0007FF9EFD00
0006FF3AFF30
0004FF59FF30
0003FF67FF40
00008742AD70
000001000010
000000000000
00008DAA9000
0000BFFFE000
0000CFFFF000
0000DFFFE000
0000DFFFE000
0000104FD000
0000004FB000
0000007F9000
0000007C5000
ENDCHAR
STARTCHAR rcommaaccent
ENCODING 343
SWIDTH 616 0
DWIDTH 12 0
BBX 12 27 0 -12
BITMAP
1257ABA97200
4FFFFFFFFFB2
06FFFFFFFFFD
00BFFFFFFFFE
007FFFFFFFFC
006FFFFFFFF9
004FFF98FFF6
002FFF40DFF3
002FFF51FFF1
001EFFFEFFE0
000CFFFFFF70
000CFFCFFA00
000BFF2DFB00
000AFF4CFB00
000AFF3BFB00
0009B718EC00
000100001600
000000000000
00005CB9A200
00007FFFF300
00008FFFF400
00009FFFF300
00009FFFF300
0000112DF200
0000000FF000
0000003FD000
0000003C8000
ENDCHAR
STARTCHAR Rcaron
ENCODING 344
SWIDTH 599 0
DWIDTH 12 0
BBX 12 26 0 -2
BITMAP
000100000200
005E90003E70
007FF500CFF2
001EFD07FFA0
0009FF9EFF20
0002FFFFF900
0000AFFFF200
00003CAC8000
000000000000
0267BCB98100
4EFFFFFFFE60
06FFFFFFFFF5
00CFFFFFFFF8
006FFFFFFFF8
006FFFFFFFF7
005FFF58FFF6
004FFF20FFF4
001FFF34FFF1
000CFFFFFFB0
0009FFFFFE50
0007FF9EFD00
0006FF3AFF30
0004FF59FF30
0003FF67FF40
00008742AD70
000001000010
ENDCHAR
STARTCHAR rcaron
ENCODING 345
SWIDTH 616 0
DWIDTH 12 0
BBX 12 26 0 -2
BITMAP
000200000200
005E80004F60
008FF401DFF1
002FFC08FF80
000AFF8FFE10
0003FFFFF800
0000BFFFE100
00004BAC7000
000000000000
1257ABA97200
4FFFFFFFFFB2
06FFFFFFFFFD
00BFFFFFFFFE
007FFFFFFFFC
006FFFFFFFF9
004FFF98FFF6
002FFF40DFF3
002FFF51FFF1
001EFFFEFFE0
000CFFFFFF70
000CFFCFFA00
000BFF2DFB00
000AFF4CFB00
000AFF3BFB00
0009B718EC00
000100001600
ENDCHAR
STARTCHAR Sacute
ENCODING 346
SWIDTH 504 0
DWIDTH 10 0
BBX 12 24 0 -2
BITMAP
000000000100
000000004E20
00000006FF60
0000008FFFF6
00000BFFD940
000007720000
000000000000
00027BA30000
01AFFFFF8000
09FFFFFFF800
1EFFFFFFF900
5FFFFFFFF800
7FFFFFFFF700
7FFFDBFFF700
6FFF82EDF600
2FFFE8501200
09FFFFFB1000
006DFFFFA000
001138FFE000
0BFF92FFC000
08FFEDFF6000
01EFFFFD0000
004A79760000
000002000000
ENDCHAR
STARTCHAR sacute
ENCODING 347
SWIDTH 481 0
DWIDTH 10 0
BBX 12 24 0 -2
BITMAP
000000000100
000000006D10
00000008FF40
000001AFFFE4
00000DFFC830
000009620000
000000000000
0007AB820000
01BFFFFE3000
09FFFFFFE200
2FFFFFFFF200
6FFFFFFFF000
7FFFFFFFE000
7FFFCEFFD000
5FFF57FFC000
2FFFB6337000
0BFFFFE30000
01BFFFFA0000
00027DFF0000
06CC58FF1000
07FFBCFB0000
01EFFFF40000
006FCA900000
000100000000
ENDCHAR
STARTCHAR Scircumflex
ENCODING 348
SWIDTH 504 0
DWIDTH 10 0
BBX 10 25 0 -2
BITMAP
0005CBC700
000CFFFE10
004FFFFF80
00BFF7FFE1
02FF605FF8
09F70008FE
0690000085
0000000000
00027BA300
01AFFFFF80
09FFFFFFF8
1EFFFFFFF9
5FFFFFFFF8
7FFFFFFFF7
7FFFDBFFF7
6FFF82EDF6
2FFFE85012
09FFFFFB10
006DFFFFA0
001138FFE0
0BFF92FFC0
08FFEDFF60
01EFFFFD00
004A797600
0000020000
ENDCHAR
STARTCHAR scircumflex
ENCODING 349
SWIDTH 481 0
DWIDTH 10 0
BBX 10 25 0 -2
BITMAP
0009BBD300
002FFFFA00
009FFFFF30
01EFD8FFB0
07FE20AFF3
0DF3001CFA
19500001A2
0000000000
0007AB8200
01BFFFFE30
09FFFFFFE2
2FFFFFFFF2
6FFFFFFFF0
7FFFFFFFE0
7FFFCEFFD0
5FFF57FFC0
2FFFB63370
0BFFFFE300
01BFFFFA00
00027DFF00
06CC58FF10
07FFBCFB00
01EFFFF400
006FCA9000
0001000000
ENDCHAR
STARTCHAR Scedilla
ENCODING 350
SWIDTH 504 0
DWIDTH 10 0
BBX 10 22 0 -7
BITMAP
00027BA300
01AFFFFF80
09FFFFFFF8
1EFFFFFFF9
5FFFFFFFF8
7FFFFFFFF7
7FFFDBFFF7
6FFF82EDF6
2FFFE85012
09FFFFFB10
006DFFFFA0
001138FFE0
0BFF92FFC0
08FFEDFF60
01EFFFFD00
004A8FE600
00006F2000
0000AD6500
00007BEC00
000000CB00
00007BFB00
0000689600
ENDCHAR
STARTCHAR scedilla
ENCODING 351
SWIDTH 481 0
DWIDTH 10 0
BBX 10 22 0 -7
BITMAP
0007AB8200
01BFFFFE30
09FFFFFFE2
2FFFFFFFF2
6FFFFFFFF0
7FFFFFFFE0
7FFFCEFFD0
5FFF57FFC0
2FFFB63370
0BFFFFE300
01BFFFFA00
00027DFF00
06CC58FF10
07FFBCFB00
01EFFFF400
006FFF9000
0003F60000
0006F76000
0005BDF100
000008F000
0005BEF000
0003899000
ENDCHAR
STARTCHAR Scaron
ENCODING 352
SWIDTH 503 0
DWIDTH 10 0
BBX 10 28 0 -2
BITMAP
0020000110
1BE2000BC1
1EFC006FF8
08FF41EFE1
02FFDBFF80
00AFFFFE10
004FFFF800
000ABBC100
0000000000
0000000000
0000000000
00027BA300
01AFFFFF80
09FFFFFFF8
1EFFFFFFF8
5FFFFFFFF8
7FFFFFFFF7
7FFFDCFFF7
6FFF82EDF6
3FFFE85012
09FFFFFB10
007DFFFF90
001138FFE0
0BFF93FFB0
08FFEDFF60
01EFFFFD00
004A797500
0000020000
ENDCHAR
STARTCHAR scaron
ENCODING 353
SWIDTH 479 0
DWIDTH 10 0
BBX 10 27 0 -2
BITMAP
1BA0000C70
5FF6008FF4
0DFE13FFD0
07FF8CFF60
01EFFFFD00
009FFFF600
002EDED000
0000000000
0000000000
0000000000
0007AB8200
01BFFFFE30
09FFFFFFE1
2FFFFFFFF1
6FFFFFFFF0
7FFFFFFFD0
7FFFCEFFC0
6FFF57FFB0
2FFFB53360
0BFFFFE200
01BFFFFA00
00027DFE00
06CC58FE00
07FFBCFB00
01EFFFF300
006FCA9000
0001000000
ENDCHAR
STARTCHAR Tcommaaccent
ENCODING 354
SWIDTH 622 0
DWIDTH 12 0
BBX 12 23 0 -8
BITMAP
136899998520
1DFFFFFFFFFA
08FFFFFFFFE2
03FFFFFFFFD0
00FFFFFFFFD0
00EFFFFFFFB0
00DFFFFFFF90
00775FFF3550
00000FFF2000
00000FFF3000
00001FFF0000
00001FFE1000
00000FFD0000
00000CFF0000
00000CFF0000
00000DFF0000
00000DFC0000
000007F20000
00000AD65000
000007BEC000
0000000CC000
000007BEB000
000006897000
ENDCHAR
STARTCHAR tcommaaccent
ENCODING 355
SWIDTH 683 0
DWIDTH 14 0
BBX 13 23 0 -8
BITMAP
0258CCCCCB9630
4FFFFFFFFFFFB0
0AFFFFFFFFFF30
03FFFFFFFFFB00
00EFFFFFFFFB00
00BFFFFFFFFA00
009FFFFFFEF800
007849FFE14400
000006FFF00000
000006FFF00000
000005FFF00000
000004FFF00000
000002FFE00000
000000EFE00000
000000EFD00000
000000EFC00000
000000DFF00000
0000008F300000
000000CC640000
0000009BFA0000
00000000E90000
0000009CF90000
00000078950000
ENDCHAR
STARTCHAR Tcaron
ENCODING 356
SWIDTH 622 0
DWIDTH 12 0
BBX 12 27 0 -3
BITMAP
000200000100
01AE30009D20
00EFD004FFA0
007FF61DFF30
001EFE9FFA00
0009FFFFF200
0002FFFF9000
00009BBD2000
000000000000
136899998520
1DFFFFFFFFFA
08FFFFFFFFE2
03FFFFFFFFD0
00FFFFFFFFD0
00EFFFFFFFB0
00DFFFFFFF90
00775FFF3550
00000FFF2000
00000FFF3000
00001FFF0000
00001FFE1000
00000FFD0000
00000CFF0000
00000CFF0000
00000DFE0000
00000BB40000
000001000000
ENDCHAR
STARTCHAR tcaron
ENCODING 357
SWIDTH 622 0
DWIDTH 12 0
BBX 12 27 0 -3
BITMAP
000100000200
005E90003F70
007FF500DFF1
001EFC07FF90
0009FF9EFF20
0002FFFFF900
0000BFFFE100
00004CAC8000
000000000000
136899998520
1DFFFFFFFFFA
08FFFFFFFFE2
03FFFFFFFFD0
00FFFFFFFFD0
00EFFFFFFFB0
00DFFFFFFF90
00775FFF3550
00000FFF2000
00000FFF3000
00001FFF0000
00001FFE1000
00000FFD0000
00000CFF0000
00000CFF0000
00000DFE0000
00000BB40000
000001000000
ENDCHAR
STARTCHAR Utilde
ENCODING 360
SWIDTH 637 0
DWIDTH 13 0
BBX 13 23 0 -2
BITMAP
00270019A20000
04EF95DFFD1000
02EFFFFFFF9000
005FFFB9FC1000
00037300200000
00000000000000
379BC705764100
0BFFF909FFFC10
06FFF80AFFF400
04FFF80AFFF100
02FFFB0AFFC000
00FFFB0BFF9000
00DFFB0CFF5000
00BFF80CFF2000
009FF60EFF1000
00AFF70EFF0000
009FF91FFD0000
007FFB2FFB0000
003FFEBFF80000
001EFFFFF50000
0007E88A700000
00007026000000
00000001000000
ENDCHAR
STARTCHAR utilde
ENCODING 361
SWIDTH 708 0
DWIDTH 14 0
BBX 15 22 0 -1
BITMAP
00045002B8100000
007FF68EFFA00000
006FFFFFFFF40000
0009FFF9BF900000
0000472003000000
0000000000000000
2469BB4047420000
1BFFFF508FFFD810
04FFFF50BFFFF500
02FFFF509FFFC000
00DFFF808FFF7000
00AFFF909FFF1000
007FFF909FFD0000
005FFF70AFFA0000
003FFF60DFF80000
002FFF60DFF80000
001EFF90EFF50000
000BFFB2FFF20000
0005FFEAFFF10000
0002FFFFFFB00000
00006D87CB400000
0000000010000000
ENDCHAR
STARTCHAR Umacron
ENCODING 362
SWIDTH 637 0
DWIDTH 13 0
BBX 13 21 0 -2
BITMAP
00034322230000
000FFFFFFB0000
000EFFEFFA0000
00002321220000
379BC705764100
0BFFF909FFFC10
06FFF80AFFF400
04FFF80AFFF100
02FFFB0AFFC000
00FFFB0BFF9000
00DFFB0CFF5000
00BFF80CFF2000
009FF60EFF1000
00AFF70EFF0000
009FF91FFD0000
007FFB2FFB0000
003FFEBFF80000
001EFFFFF50000
0007E88A700000
00007026000000
00000001000000
ENDCHAR
STARTCHAR umacron
ENCODING 363
SWIDTH 708 0
DWIDTH 14 0
BBX 15 20 0 -1
BITMAP
0001442223200000
0004FFFFFF700000
0004EFFEFF500000
0000033212100000
2469BB4047420000
1BFFFF508FFFD810
04FFFF50BFFFF500
02FFFF509FFFC000
00DFFF808FFF7000
00AFFF909FFF1000
007FFF909FFD0000
005FFF70AFFA0000
003FFF60DFF80000
002FFF60DFF80000
001EFF90EFF50000
000BFFB2FFF20000
0005FFEAFFF10000
0002FFFFFFB00000
00006D87CB400000
0000000010000000
ENDCHAR
STARTCHAR Ubreve
ENCODING 364
SWIDTH 637 0
DWIDTH 13 0
BBX 13 25 0 -2
BITMAP
00023200000000
000BFA008B8000
0007FD10DF9000
0004FFEDFF5000
00009DFFFC0000
0000043AA60000
00000002030000
00000000000000
379BC705764100
0BFFF909FFFC10
06FFF80AFFF400
04FFF80AFFF100
02FFFB0AFFC000
00FFFB0BFF9000
00DFFB0CFF5000
00BFF80CFF2000
009FF60EFF1000
00AFF70EFF0000
009FF91FFD0000
007FFB2FFB0000
003FFEBFF80000
001EFFFFF50000
0007E88A700000
00007026000000
00000001000000
ENDCHAR
STARTCHAR ubreve
ENCODING 365
SWIDTH 708 0
DWIDTH 14 0
BBX 15 24 0 -1
BITMAP
0000331000000000
0000EF700AA60000
0000AFA02FF60000
00007FFDEFF20000
00001AEFFF900000
00000051DA400000
0000000021200000
0000000000000000
2469BB4047420000
1BFFFF508FFFD810
04FFFF50BFFFF500
02FFFF509FFFC000
00DFFF808FFF7000
00AFFF909FFF1000
007FFF909FFD0000
005FFF70AFFA0000
003FFF60DFF80000
002FFF60DFF80000
001EFF90EFF50000
000BFFB2FFF20000
0005FFEAFFF10000
0002FFFFFFB00000
00006D87CB400000
0000000010000000
ENDCHAR
STARTCHAR Uring
ENCODING 366
SWIDTH 637 0
DWIDTH 13 0
BBX 13 24 0 -2
BITMAP
00000465000000
00009FFFA00000
0000FB4AF40000
0000D803F30000
0000AD7BB00000
00005BFD300000
00000021000000
379BC705764100
0BFFF909FFFC10
06FFF80AFFF400
04FFF80AFFF100
02FFFB0AFFC000
00FFFB0BFF9000
00DFFB0CFF5000
00BFF80CFF2000
009FF60EFF1000
00AFF70EFF0000
009FF91FFD0000
007FFB2FFB0000
003FFEBFF80000
001EFFFFF50000
0007E88A700000
00007026000000
00000001000000
ENDCHAR
STARTCHAR uring
ENCODING 367
SWIDTH 708 0
DWIDTH 14 0
BBX 15 23 0 -1
BITMAP
0000004650000000
00000AFFFA000000
00001FA4AF300000
00000E703F200000
00000AD7CA000000
000005BFD2000000
0000000210000000
2469BB4047420000
1BFFFF508FFFD810
04FFFF50BFFFF500
02FFFF509FFFC000
00DFFF808FFF7000
00AFFF909FFF1000
007FFF909FFD0000
005FFF70AFFA0000
003FFF60DFF80000
002FFF60DFF80000
001EFF90EFF50000
000BFFB2FFF20000
0005FFEAFFF10000
0002FFFFFFB00000
00006D87CB400000
0000000010000000
ENDCHAR
STARTCHAR Uhungarumlaut
ENCODING 368
SWIDTH 637 0
DWIDTH 13 0
BBX 13 25 0 -2
BITMAP
00007300370000
0001EF508FB700
0006FFB0EFF600
000DFD15FF7000
004FE20AF90000
00BE302F900000
00740019000000
00000000000000
379BC705764100
0BFFF909FFFC10
06FFF80AFFF400
04FFF80AFFF100
02FFFB0AFFC000
00FFFB0BFF9000
00DFFB0CFF5000
00BFF80CFF2000
009FF60EFF1000
00AFF70EFF0000
009FF91FFD0000
007FFB2FFB0000
003FFEBFF80000
001EFFFFF50000
0007E88A700000
00007026000000
00000001000000
ENDCHAR
STARTCHAR uhungarumlaut
ENCODING 369
SWIDTH 708 0
DWIDTH 14 0
BBX 15 24 0 -1
BITMAP
0000091006400000
00005FD20DEA4000
0000BFF74FFE3000
0002FF909FE40000
0008FB01EF400000
001FC106F5000000
000A100470000000
0000000000000000
2469BB4047420000
1BFFFF508FFFD810
04FFFF50BFFFF500
02FFFF509FFFC000
00DFFF808FFF7000
00AFFF909FFF1000
007FFF909FFD0000
005FFF70AFFA0000
003FFF60DFF80000
002FFF60DFF80000
001EFF90EFF50000
000BFFB2FFF20000
0005FFEAFFF10000
0002FFFFFFB00000
00006D87CB400000
0000000010000000
ENDCHAR
STARTCHAR Uogonek
ENCODING 370
SWIDTH 637 0
DWIDTH 13 0
BBX 13 22 0 -7
BITMAP
379BC705764100
0BFFF909FFFC10
06FFF80AFFF400
04FFF80AFFF100
02FFFB0AFFC000
00FFFB0BFF9000
00DFFB0CFF5000
00BFF80CFF2000
009FF60EFF1000
00AFF70EFF0000
009FF91FFD0000
007FFB2FFB0000
003FFEBFF80000
001EFFFFF50000
0007E8FF900000
000071FF000000
000003FD000000
000003FE000000
000001FFB66000
000000BFFFE000
0000001AFFD000
00000000020000
ENDCHAR
STARTCHAR uogonek
ENCODING 371
SWIDTH 662 0
DWIDTH 13 0
BBX 15 22 0 -7
BITMAP
2469BB4047320000
1CFFFF409FFFD810
05FFFF40CFFFF400
02FFFF40AFFFB000
00EFFF709FFF6000
00BFFF80AFFF1000
008FFF80AFFC0000
006FFF60BFF90000
004FFF50EFF80000
003FFF50EFF70000
001FFF80FFF40000
000CFFA3FFF10000
0006FFEAFFE00000
0003FFFFFFA00000
00006FFFCA300000
000005FA10000000
000008F700000000
000008F900000000
000006FF96400000
000001EFFF900000
0000003CFF800000
0000000011000000
ENDCHAR
STARTCHAR Wcircumflex
ENCODING 372
SWIDTH 777 0
DWIDTH 16 0
BBX 16 24 0 -1
BITMAP
000005CBC7000000
00000CFFFE100000
00003FFFFF800000
0000AFF7EFE10000
0002FF605FF90000
0008F80007FF1000
0005900000860000
0000000110000000
0014730ED04B8510
5BFFF73FF05FFFD3
08FFF96FF4BFFD10
009FFB9FF7EFF400
001FFDBFFDFFA000
000EFFEFFFFF3000
000AFFFFFFFD0000
0003FFFFFFF90000
0000BFFFFFF90000
00007FFFFFF60000
00004FFBFFF20000
00001FF8FFF00000
00000CF6DF900000
000008F3BF400000
00000395AE200000
0000000101000000
ENDCHAR
STARTCHAR wcircumflex
ENCODING 373
SWIDTH 704 0
DWIDTH 14 0
BBX 15 23 0 0
BITMAP
00000BBBD1000000
00005FFFF7000000
0000CFFFFE100000
0003FFBAFF700000
000AFC11CFE10000
002FD2002EF70000
001A300003A10000
0000000000000000
0136606B03641000
5FFFE0BF24FFF810
04FFF2EF77FFC000
00AFF4FFB9FF6000
004FFAFFEDFE1000
002FFEFFFFF90000
000CFFFFFFF40000
0005FFFFFFF10000
0000FFFFFFE10000
0000CFFFFFC00000
00008FFCFFC00000
00004FF7FFC00000
00000EF5FF700000
00000AF2DF500000
00000481BD400000
ENDCHAR
STARTCHAR Ycircumflex
ENCODING 374
SWIDTH 688 0
DWIDTH 14 0
BBX 15 24 0 -1
BITMAP
00001CBCB0000000
00007FFFF5000000
0000EFFFFC000000
0006FF9CFF500000
000CFB02EFD00000
004FC1003EF50000
003A100004900000
0000000000000000
269AB9005A510000
18FFFF309FFFD710
003DFFC0DFFF8000
0004FFFAFFF70000
00005FFFFFA00000
00000DFFFF200000
000007FFFF000000
000003FFFD000000
000000BFFC000000
0000006FFB000000
0000004FFA000000
0000001FF9000000
0000000FF8000000
0000000EF7000000
0000000DF6000000
0000000862000000
ENDCHAR
STARTCHAR ycircumflex
ENCODING 375
SWIDTH 604 0
DWIDTH 12 0
BBX 12 25 0 -2
BITMAP
0001CBCB0000
0007FFFF5000
000DFFFFD000
005FF9CFF500
00CFB02EFD00
04FC1003EF50
02A100004900
000000000000
159990076200
09FFF60DFFE3
006EFC3FFF50
000AFFAFF800
0002EFFFC000
0000CFFF7000
00009FFF5000
00005FFF4000
00002FFF3000
00000DFF1000
00000BFF0000
00000BFE0000
00000BFF0000
00000CFD0000
00000BF90000
000009B60000
000001000000
ENDCHAR
STARTCHAR Ydieresis
ENCODING 376
SWIDTH 688 0
DWIDTH 14 0
BBX 15 22 0 -1
BITMAP
005A88119BDB0000
00AFFF31FFFE0000
00BFFF31FFFE0000
00BFFF21FFFF0000
009DFE21DDBC0000
0000000000000000
269AB9005A510000
18FFFF309FFFD710
003DFFC0DFFF8000
0004FFFAFFF70000
00005FFFFFA00000
00000DFFFF200000
000007FFFF000000
000003FFFD000000
000000BFFC000000
0000006FFB000000
0000004FFA000000
0000001FF9000000
0000000FF8000000
0000000EF7000000
0000000DF6000000
0000000862000000
ENDCHAR
STARTCHAR Zacute
ENCODING 377
SWIDTH 695 0
DWIDTH 14 0
BBX 15 23 0 -1
BITMAP
0000000000001000
00000000000AA000
0000000001CFD100
000000003DFFFC10
00000003FFFB6200
0000000294100000
0000000000000000
036ABBBBB9520000
2FFFFFFFFFFFD500
0BFFFFFFFFFFD000
04FFFFFFFFFF5000
00DFFFFFFFFD0000
009FFFFFFFF60000
007FFCEFFFD00000
005A11EFFC200000
000008FFC1000000
00000DFF30000000
00002FF800000000
00008FE100000000
0001EFEBA4000000
0008FFFFF5000000
0008EDFFE1000000
0000212540000000
ENDCHAR
STARTCHAR zacute
ENCODING 378
SWIDTH 622 0
DWIDTH 12 0
BBX 13 23 0 -2
BITMAP
0000000001B800
000000002DFC00
00000004EFFFB0
0000005FFEA610
00000039400000
00000000000000
148BCBCCB85200
2FFFFFFFFFF900
0AFFFFFFFFF300
02FFFFFFFFB000
00BFFFFFFF7000
008FFFFFFF5000
005FFDEFFC0000
002B33FFD20000
000009FF400000
00000DFB000000
00003FF4000000
00007FE0000000
0000CFB8710000
0002FFFFF10000
0004FFFFE00000
00007267A00000
00000000100000
ENDCHAR
STARTCHAR Zdotaccent
ENCODING 379
SWIDTH 695 0
DWIDTH 14 0
BBX 14 24 0 -1
BITMAP
0000378AA70000
00006FFFFC0000
00004FFFFB0000
00002FFFFE0000
00001FFFFD0000
00000FFFFC0000
00000642220000
00000000000000
036ABBBBB95200
2FFFFFFFFFFFD5
0BFFFFFFFFFFD0
04FFFFFFFFFF50
00DFFFFFFFFD00
009FFFFFFFF600
007FFCEFFFD000
005A11EFFC2000
000008FFC10000
00000DFF300000
00002FF8000000
00008FE1000000
0001EFEBA40000
0008FFFFF50000
0008EDFFE10000
00002125400000
ENDCHAR
STARTCHAR zdotaccent
ENCODING 380
SWIDTH 622 0
DWIDTH 12 0
BBX 12 25 0 -2
BITMAP
000478AA6000
0007FFFFA000
0005FFFF9000
0004FFFFC000
0003FFFFB000
0002FFFFA000
000164121000
000000000000
148BCBCCB852
2FFFFFFFFFF9
0AFFFFFFFFF3
02FFFFFFFFB0
00BFFFFFFF70
008FFFFFFF50
005FFDEFFC00
002B33FFD200
000009FF4000
00000DFB0000
00003FF40000
00007FE00000
0000CFB87100
0002FFFFF100
0004FFFFE000
00007267A000
000000001000
ENDCHAR
STARTCHAR Zcaron
ENCODING 381
SWIDTH 693 0
DWIDTH 14 0
BBX 14 27 0 -1
BITMAP
00002000011000
0008E3000AC100
000BFD005FF600
0005FF51EFE100
0000EFDAFF7000
00008FFFFE1000
00002FFFF80000
000009BBC10000
00000000000000
00000000000000
00000000000000
036ABBBBB95200
3FFFFFFFFFFFD5
0CFFFFFFFFFFD0
04FFFFFFFFFF50
00DFFFFFFFFD00
009FFFFFFFF600
007FFCEFFFD000
005A11EFFC2000
000008FFC10000
00000DFF300000
00003FF8000000
00008FE1000000
0001EFEBA40000
0008FFFFF50000
0008EDFFE10000
00002125400000
ENDCHAR
STARTCHAR zcaron
ENCODING 382
SWIDTH 621 0
DWIDTH 12 0
BBX 12 28 0 -2
BITMAP
000300001200
00AF4000BD20
00CFD006FF80
006FF61EFE10
000EFEBFF800
0008FFFFE100
0002FFFF8000
00008A9B1000
000000000000
000000000000
000000000000
148BCBCCB851
2FFFFFFFFFF9
0BFFFFFFFFF3
03FFFFFFFFB0
00BFFFFFFF60
008FFFFFFF50
005FFDEFFC00
002B34FFD200
00000AFF4000
00000EFB0000
00003FF40000
00007FD00000
0000CFB87100
0002FFFFF100
0004FFFFE000
00007267A000
000000001000
ENDCHAR
STARTCHAR DZ
ENCODING 497
SWIDTH 194 0
DWIDTH 4 0
BBX 1 1 0 0
BITMAP
00
ENDCHAR
STARTCHAR Dz
ENCODING 498
SWIDTH 194 0
DWIDTH 4 0
BBX 1 1 0 0
BITMAP
00
ENDCHAR
STARTCHAR dotlessj
ENCODING 567
SWIDTH 458 0
DWIDTH 9 0
BBX 10 16 -1 -1
BITMAP
0005BBA630
0002FFFFF4
0000BFFFF0
00008FFFB0
00004FFF60
00004FFF70
00004FFF60
00004FFF50
00002FFF40
00011FFF10
3AB71FFF00
4FFA1FFE00
0EFE5FFB00
0AFFFFF800
02CEFFF300
0001385200
ENDCHAR
STARTCHAR circumflex
ENCODING 710
SWIDTH 528 0
DWIDTH 11 0
BBX 10 7 0 14
BITMAP
0009BBD200
002FFFFA00
009FFFFF30
01EFD8FFA0
07FE20AFF3
0DE3001CFA
19500001A2
ENDCHAR
STARTCHAR caron
ENCODING 711
SWIDTH 486 0
DWIDTH 10 0
BBX 10 8 0 14
BITMAP
0110000200
4DB0002E90
5FF700BFF3
0DFE15FFB0
07FFAEFF30
01EFFFFB00
009FFFF300
002CAB9000
ENDCHAR
STARTCHAR breve
ENCODING 728
SWIDTH 464 0
DWIDTH 9 0
BBX 9 7 0 -2
BITMAP
1331000000
1FF400BA40
0CF804FF40
09FFDEFE10
03AFFFF700
00061EA100
0000023000
ENDCHAR
STARTCHAR dotaccent
ENCODING 729
SWIDTH 388 0
DWIDTH 8 0
BBX 6 7 1 4
BITMAP
579B94
BFFFF7
9FFFF6
7FFFF8
6FFFF7
5FFFF7
264131
ENDCHAR
STARTCHAR ring
ENCODING 730
SWIDTH 370 0
DWIDTH 7 0
BBX 6 7 1 5
BITMAP
046500
8FFFB1
EC49F5
C902F4
9E7BC0
4AFD30
002100
ENDCHAR
STARTCHAR ogonek
ENCODING 731
SWIDTH 360 0
DWIDTH 7 0
BBX 6 8 1 -1
BITMAP
6D6000
AF5000
DF2000
EF4000
CFD762
6FFFF4
07EFF3
000110
ENDCHAR
STARTCHAR tilde
ENCODING 732
SWIDTH 535 0
DWIDTH 11 0
BBX 10 5 0 -2
BITMAP
0171006B40
1DFC4BFFF4
1CFFFFFFFC
02EFFD8EE4
0017500120
ENDCHAR
STARTCHAR hungarumlaut
ENCODING 733
SWIDTH 554 0
DWIDTH 11 0
BBX 11 7 0 14
BITMAP
000910054000
004FD30CEA50
00AFF83FFE30
02FFA09FF400
08FB00EF5000
1EC105F60000
0A2003700000
ENDCHAR
STARTCHAR dotaccentcmb
ENCODING 775
SWIDTH 396 0
DWIDTH 8 0
BBX 6 7 1 7
BITMAP
579BA4
AFFFF8
8FFFF7
6FFFF9
5FFFF9
5FFFF8
253121
ENDCHAR
STARTCHAR uni030F
ENCODING 783
SWIDTH 549 0
DWIDTH 11 0
BBX 11 7 0 14
BITMAP
004600180000
5AED03DF4000
3EFF37FFB000
04EF90AFF200
004FE10CF800
0005F601CF10
000073001A10
ENDCHAR
STARTCHAR uni0311
ENCODING 785
SWIDTH 490 0
DWIDTH 10 0
BBX 8 6 1 7
BITMAP
00355300
0CFFFE60
4FFFFFE1
7FE55FF5
BF800CF9
88400244
ENDCHAR
STARTCHAR uni0326
ENCODING 806
SWIDTH 360 0
DWIDTH 7 0
BBX 6 9 1 -2
BITMAP
6CB9A0
9FFFF1
AFFFF2
AFFFF2
AFFFF2
102FF1
002FD0
005FB0
005C70
ENDCHAR
STARTCHAR endash
ENCODING 8211
SWIDTH 478 0
DWIDTH 10 0
BBX 8 5 1 5
BITMAP
79988784
CFFFFFF3
DFFFFFF0
CEFEFFE0
01322130
ENDCHAR
STARTCHAR emdash
ENCODING 8212
SWIDTH 567 0
DWIDTH 11 0
BBX 10 5 1 5
BITMAP
7997899882
CFFFFFFFE0
DFFFFFFFB0
CEFEDFFFB0
0131041120
ENDCHAR
STARTCHAR quoteleft
ENCODING 8216
SWIDTH 373 0
DWIDTH 7 0
BBX 6 10 1 5
BITMAP
3A7000
6FA000
8F7000
BF5000
CFECD4
CFFFF6
CFFFF5
DFFFF5
CFFFF4
ADDFE3
ENDCHAR
STARTCHAR quoteright
ENCODING 8217
SWIDTH 369 0
DWIDTH 7 0
BBX 7 11 0 4
BITMAP
08A86800
0EFFFF10
0FFFFF20
0FFFFF20
1FFFFF20
1FFFFF20
0325FF10
0001FE00
0004FB00
0006F900
00001000
ENDCHAR
STARTCHAR quotesinglbase
ENCODING 8218
SWIDTH 369 0
DWIDTH 7 0
BBX 7 11 0 4
BITMAP
08A86800
0EFFFF10
0FFFFF20
0FFFFF20
1FFFFF20
1FFFFF20
0325FF10
0001FE00
0004FB00
0006F900
00001000
ENDCHAR
STARTCHAR quotedblleft
ENCODING 8220
SWIDTH 687 0
DWIDTH 14 0
BBX 12 11 1 4
BITMAP
2A700009A000
6FA0002FE000
8F70004FB000
AF50006F9000
CFECD48FFDC8
CFFFF68FFFFA
CFFFF58FFFFA
DFFFF58FFFF9
CFFFF48FFFF9
ADDFF36DCEF7
000010000010
ENDCHAR
STARTCHAR quotedblright
ENCODING 8221
SWIDTH 677 0
DWIDTH 14 0
BBX 13 11 0 4
BITMAP
09A99704A86810
0FFFFC08FFFF30
0FFFFC08FFFF40
1FFFFD09FFFF50
1FFFFC09FFFF40
2FFFFC0AFFFF40
0445FC0234DF30
0003FA0000EF10
0005F80002FE00
0006F50003FC00
00001000001000
ENDCHAR
STARTCHAR quotedblbase
ENCODING 8222
SWIDTH 697 0
DWIDTH 14 0
BBX 13 11 0 -7
BITMAP
08A868019A7760
0EFFFF13FFFFD0
0EFFFF23FFFFE0
0FFFFF34FFFFE0
1FFFFF24FFFFE0
1FFFFF25FFFFD0
0324EF10336FD0
0001FE00005FA0
0004FC00008F80
0005FA00009F60
00001000001100
ENDCHAR
STARTCHAR ellipsis
ENCODING 8230
SWIDTH 1462 0
DWIDTH 29 0
BBX 29 7 0 0
BITMAP
1ACEFE1000009CEFD000000ACFFE20
0BFFFF1000009FFFF000000AFFFF20
09FFFF1000008FFFE1000009FFFF20
08FFFF2000007FFFF1000008FFFF40
07FFFF1000006FFFF0000007FFFF30
07FDBD0000005FDBC0000006FDBD20
011000000000110000000001100000
ENDCHAR
STARTCHAR guilsinglleft
ENCODING 8249
SWIDTH 459 0
DWIDTH 9 0
BBX 9 12 0 1
BITMAP
0003333320
000DFFFF40
002FFFF500
00AFFF9000
09FFFD1000
4FFFF30000
2FFFF40000
09FFFB0000
00BFFF4000
002DFFE400
0003EFFE50
0000257930
ENDCHAR
STARTCHAR guilsinglright
ENCODING 8250
SWIDTH 432 0
DWIDTH 9 0
BBX 8 12 0 1
BITMAP
24445100
2EFFF900
06FFFC00
009FFF70
001EFFF4
0003FFFE
0005FFFB
000BFFF7
007FFF70
08FFFD00
3FFFF300
15643000
ENDCHAR
STARTCHAR fraction
ENCODING 8260
SWIDTH 371 0
DWIDTH 7 0
BBX 8 16 0 -1
BITMAP
69BBC972
5FFFFFC0
07FFFF60
00EFFF30
00EFFF10
00FFFC00
00FFFA00
00EFF800
00DFF800
00AFFA00
008FF700
005FF400
004FF400
004FF300
002DE200
00016200
ENDCHAR
STARTCHAR Euro
ENCODING 8364
SWIDTH 587 0
DWIDTH 12 0
BBX 11 20 0 -5
BITMAP
00007ACC8100
0009FFFFFC10
007FFFFFFF90
00CFFFFFFFC0
00EFFFFFFFD0
00DFFFFFFFC0
00BFFFCFFFB0
009FFD0BFFB0
8BDFFF86DD80
369FFC100000
49BFFD700000
478FFE69DA10
000DFE1DFE00
0008FFDFFA00
0005FFFFD200
00002A6D4000
000006350000
000007410000
000001700000
000000100000
ENDCHAR
STARTCHAR trademark
ENCODING 8482
SWIDTH 785 0
DWIDTH 16 0
BBX 16 12 0 4
BITMAP
0000000000111000
6BCDCA64CFA5FDA1
4FFFFF70DFE8FF70
1FFFFF60CFFEFF50
0EFFFF409FFFFF30
066FC5108FFFFF30
001FC0006FDFDF30
002FB0003FAEAF10
001FA0001FACAE00
000EB0000C588B00
000E800002000200
0001000000000000
ENDCHAR
STARTCHAR minus
ENCODING 8722
SWIDTH 478 0
DWIDTH 10 0
BBX 8 5 1 5
BITMAP
79988784
CFFFFFF3
DFFFFFF0
CEFEFFE0
01322130
ENDCHAR
STARTCHAR commaaccent
ENCODING 63171
SWIDTH 360 0
DWIDTH 7 0
BBX 7 10 0 -3
BITMAP
0ADA9A00
0EFFFF20
0FFFFF20
0FFFFF30
1FFFFF20
1FFFFF20
0102EF10
0001FE00
0004FB00
0005D800
ENDCHAR
STARTCHAR .notdef
ENCODING -1
SWIDTH 365 0
DWIDTH 7 0
BBX 6 14 0 0
BITMAP
255555
58555C
55000A
55000A
55000A
55000A
55000A
55000A
55000A
55000A
55000A
55000A
55000A
5CAAAD
ENDCHAR
STARTCHAR .null
ENCODING -1
SWIDTH 0 0
DWIDTH 0 0
BBX 1 1 0 0
BITMAP
00
ENDCHAR
STARTCHAR nonmarkingreturn
ENCODING -1
SWIDTH 333 0
DWIDTH 7 0
BBX 1 1 0 0
BITMAP
00
ENDCHAR
ENDFONT
